<mxfile host="app.diagrams.net" modified="2020-10-07T00:36:39.308Z" agent="5.0 (Windows NT 10.0; Win64; x64) AppleWebKit/537.36 (KHTML, like Gecko) Chrome/85.0.4183.121 Safari/537.36" etag="YQlHdwU5gP_V5Iybe_52" version="13.7.7" type="github">
  <diagram id="IvkMk0oIg-RRfeb5mfo6" name="Page-1">
    <mxGraphModel dx="1248" dy="706" grid="1" gridSize="10" guides="1" tooltips="1" connect="1" arrows="1" fold="1" page="1" pageScale="1" pageWidth="850" pageHeight="1100" math="0" shadow="0">
      <root>
        <mxCell id="0" />
        <mxCell id="1" parent="0" />
        <mxCell id="aTKgwxSe1R5_qSLaAjla-1" value="Golf Scorecard" style="text;strokeColor=none;fillColor=none;html=1;fontSize=24;fontStyle=1;verticalAlign=middle;align=center;" vertex="1" parent="1">
          <mxGeometry x="40" y="30" width="190" height="40" as="geometry" />
        </mxCell>
        <mxCell id="aTKgwxSe1R5_qSLaAjla-152" value="Hole" style="label;whiteSpace=wrap;html=1;image=https://creazilla-store.fra1.digitaloceanspaces.com/emojis/53968/flag-in-hole-emoji-clipart-md.png;startSize=0;strokeColor=#666666;fillColor=#f5f5f5;gradientColor=none;fontColor=#333333;" vertex="1" parent="1">
          <mxGeometry x="70" y="80" width="90" height="60" as="geometry" />
        </mxCell>
        <mxCell id="aTKgwxSe1R5_qSLaAjla-155" value="Par" style="label;whiteSpace=wrap;html=1;image=https://creazilla-store.fra1.digitaloceanspaces.com/emojis/53968/flag-in-hole-emoji-clipart-md.png;startSize=0;strokeColor=#666666;fillColor=#f5f5f5;gradientColor=none;fontColor=#333333;" vertex="1" parent="1">
          <mxGeometry x="220" y="80" width="90" height="60" as="geometry" />
        </mxCell>
        <mxCell id="aTKgwxSe1R5_qSLaAjla-156" value="Score" style="label;whiteSpace=wrap;html=1;image=https://creazilla-store.fra1.digitaloceanspaces.com/emojis/53968/flag-in-hole-emoji-clipart-md.png;startSize=0;strokeColor=#666666;fillColor=#f5f5f5;gradientColor=none;fontColor=#333333;" vertex="1" parent="1">
          <mxGeometry x="370" y="80" width="90" height="60" as="geometry" />
        </mxCell>
        <mxCell id="aTKgwxSe1R5_qSLaAjla-157" value="Over" style="label;whiteSpace=wrap;html=1;image=https://creazilla-store.fra1.digitaloceanspaces.com/emojis/53968/flag-in-hole-emoji-clipart-md.png;startSize=0;strokeColor=#666666;fillColor=#f5f5f5;gradientColor=none;fontColor=#333333;" vertex="1" parent="1">
          <mxGeometry x="520" y="80" width="90" height="60" as="geometry" />
        </mxCell>
        <mxCell id="aTKgwxSe1R5_qSLaAjla-158" value="Actions" style="label;whiteSpace=wrap;html=1;image=https://creazilla-store.fra1.digitaloceanspaces.com/emojis/53968/flag-in-hole-emoji-clipart-md.png;startSize=0;strokeColor=#666666;fillColor=#f5f5f5;gradientColor=none;fontColor=#333333;" vertex="1" parent="1">
          <mxGeometry x="670" y="80" width="110" height="60" as="geometry" />
        </mxCell>
        <mxCell id="aTKgwxSe1R5_qSLaAjla-212" value="" style="shape=table;html=1;whiteSpace=wrap;startSize=0;container=1;collapsible=0;childLayout=tableLayout;shadow=0;strokeColor=#FFFFFF;gradientColor=none;fontFamily=Helvetica;fontSize=15;fontColor=#333333;fillColor=#DEDEDE;" vertex="1" parent="1">
          <mxGeometry x="235" y="150" width="60" height="730" as="geometry" />
        </mxCell>
        <mxCell id="aTKgwxSe1R5_qSLaAjla-213" value="" style="shape=partialRectangle;html=1;whiteSpace=wrap;collapsible=0;dropTarget=0;pointerEvents=0;top=0;left=0;bottom=0;right=0;points=[[0,0.5],[1,0.5]];portConstraint=eastwest;labelBackgroundColor=none;strokeColor=#666666;fontColor=#333333;fillColor=#DEDEDE;" vertex="1" parent="aTKgwxSe1R5_qSLaAjla-212">
          <mxGeometry width="60" height="40" as="geometry" />
        </mxCell>
        <mxCell id="aTKgwxSe1R5_qSLaAjla-215" value="&lt;font&gt;&lt;font style=&quot;font-size: 12px&quot;&gt;4&lt;/font&gt;&lt;br&gt;&lt;/font&gt;" style="shape=partialRectangle;html=1;whiteSpace=wrap;connectable=0;top=0;left=0;bottom=0;right=0;overflow=hidden;labelBackgroundColor=none;strokeColor=#666666;fontColor=#333333;fillColor=#DEDEDE;" vertex="1" parent="aTKgwxSe1R5_qSLaAjla-213">
          <mxGeometry width="60" height="40" as="geometry" />
        </mxCell>
        <mxCell id="aTKgwxSe1R5_qSLaAjla-234" style="shape=partialRectangle;html=1;whiteSpace=wrap;collapsible=0;dropTarget=0;pointerEvents=0;top=0;left=0;bottom=0;right=0;points=[[0,0.5],[1,0.5]];portConstraint=eastwest;labelBackgroundColor=none;strokeColor=#666666;fontColor=#333333;fillColor=#DEDEDE;" vertex="1" parent="aTKgwxSe1R5_qSLaAjla-212">
          <mxGeometry y="40" width="60" height="40" as="geometry" />
        </mxCell>
        <mxCell id="aTKgwxSe1R5_qSLaAjla-235" value="4" style="shape=partialRectangle;html=1;whiteSpace=wrap;connectable=0;top=0;left=0;bottom=0;right=0;overflow=hidden;labelBackgroundColor=none;strokeColor=#666666;fontColor=#333333;fillColor=#DEDEDE;" vertex="1" parent="aTKgwxSe1R5_qSLaAjla-234">
          <mxGeometry width="60" height="40" as="geometry" />
        </mxCell>
        <mxCell id="aTKgwxSe1R5_qSLaAjla-236" style="shape=partialRectangle;html=1;whiteSpace=wrap;collapsible=0;dropTarget=0;pointerEvents=0;top=0;left=0;bottom=0;right=0;points=[[0,0.5],[1,0.5]];portConstraint=eastwest;sketch=0;shadow=0;labelBackgroundColor=none;strokeColor=#666666;fontColor=#333333;fillColor=#DEDEDE;" vertex="1" parent="aTKgwxSe1R5_qSLaAjla-212">
          <mxGeometry y="80" width="60" height="50" as="geometry" />
        </mxCell>
        <mxCell id="aTKgwxSe1R5_qSLaAjla-237" value="4" style="shape=partialRectangle;html=1;whiteSpace=wrap;connectable=0;top=0;left=0;bottom=0;right=0;overflow=hidden;sketch=0;shadow=0;labelBackgroundColor=none;strokeColor=#666666;fontColor=#333333;fillColor=#DEDEDE;" vertex="1" parent="aTKgwxSe1R5_qSLaAjla-236">
          <mxGeometry width="60" height="50" as="geometry" />
        </mxCell>
        <mxCell id="aTKgwxSe1R5_qSLaAjla-346" style="shape=partialRectangle;html=1;whiteSpace=wrap;collapsible=0;dropTarget=0;pointerEvents=0;top=0;left=0;bottom=0;right=0;points=[[0,0.5],[1,0.5]];portConstraint=eastwest;sketch=0;shadow=0;labelBackgroundColor=none;strokeColor=#666666;fontColor=#333333;fillColor=#DEDEDE;" vertex="1" parent="aTKgwxSe1R5_qSLaAjla-212">
          <mxGeometry y="130" width="60" height="40" as="geometry" />
        </mxCell>
        <mxCell id="aTKgwxSe1R5_qSLaAjla-347" value="4" style="shape=partialRectangle;html=1;whiteSpace=wrap;connectable=0;top=0;left=0;bottom=0;right=0;overflow=hidden;sketch=0;shadow=0;labelBackgroundColor=none;strokeColor=#666666;fontColor=#333333;fillColor=#DEDEDE;" vertex="1" parent="aTKgwxSe1R5_qSLaAjla-346">
          <mxGeometry width="60" height="40" as="geometry" />
        </mxCell>
        <mxCell id="aTKgwxSe1R5_qSLaAjla-238" style="shape=partialRectangle;html=1;whiteSpace=wrap;collapsible=0;dropTarget=0;pointerEvents=0;top=0;left=0;bottom=0;right=0;points=[[0,0.5],[1,0.5]];portConstraint=eastwest;sketch=0;shadow=0;labelBackgroundColor=none;strokeColor=#666666;fontColor=#333333;fillColor=#DEDEDE;" vertex="1" parent="aTKgwxSe1R5_qSLaAjla-212">
          <mxGeometry y="170" width="60" height="40" as="geometry" />
        </mxCell>
        <mxCell id="aTKgwxSe1R5_qSLaAjla-239" value="4" style="shape=partialRectangle;html=1;whiteSpace=wrap;connectable=0;top=0;left=0;bottom=0;right=0;overflow=hidden;sketch=0;shadow=0;labelBackgroundColor=none;strokeColor=#666666;fontColor=#333333;fillColor=#DEDEDE;" vertex="1" parent="aTKgwxSe1R5_qSLaAjla-238">
          <mxGeometry width="60" height="40" as="geometry" />
        </mxCell>
        <mxCell id="aTKgwxSe1R5_qSLaAjla-240" style="shape=partialRectangle;html=1;whiteSpace=wrap;collapsible=0;dropTarget=0;pointerEvents=0;top=0;left=0;bottom=0;right=0;points=[[0,0.5],[1,0.5]];portConstraint=eastwest;labelBackgroundColor=none;strokeColor=#666666;fontColor=#333333;fillColor=#DEDEDE;" vertex="1" parent="aTKgwxSe1R5_qSLaAjla-212">
          <mxGeometry y="210" width="60" height="40" as="geometry" />
        </mxCell>
        <mxCell id="aTKgwxSe1R5_qSLaAjla-241" value="4" style="shape=partialRectangle;html=1;whiteSpace=wrap;connectable=0;top=0;left=0;bottom=0;right=0;overflow=hidden;labelBackgroundColor=none;strokeColor=#666666;fontColor=#333333;fillColor=#DEDEDE;" vertex="1" parent="aTKgwxSe1R5_qSLaAjla-240">
          <mxGeometry width="60" height="40" as="geometry" />
        </mxCell>
        <mxCell id="aTKgwxSe1R5_qSLaAjla-242" style="shape=partialRectangle;html=1;whiteSpace=wrap;collapsible=0;dropTarget=0;pointerEvents=0;top=0;left=0;bottom=0;right=0;points=[[0,0.5],[1,0.5]];portConstraint=eastwest;labelBackgroundColor=none;strokeColor=#666666;fontColor=#333333;fillColor=#DEDEDE;" vertex="1" parent="aTKgwxSe1R5_qSLaAjla-212">
          <mxGeometry y="250" width="60" height="40" as="geometry" />
        </mxCell>
        <mxCell id="aTKgwxSe1R5_qSLaAjla-243" value="4" style="shape=partialRectangle;html=1;whiteSpace=wrap;connectable=0;top=0;left=0;bottom=0;right=0;overflow=hidden;labelBackgroundColor=none;strokeColor=#666666;fontColor=#333333;fillColor=#DEDEDE;" vertex="1" parent="aTKgwxSe1R5_qSLaAjla-242">
          <mxGeometry width="60" height="40" as="geometry" />
        </mxCell>
        <mxCell id="aTKgwxSe1R5_qSLaAjla-244" style="shape=partialRectangle;html=1;whiteSpace=wrap;collapsible=0;dropTarget=0;pointerEvents=0;top=0;left=0;bottom=0;right=0;points=[[0,0.5],[1,0.5]];portConstraint=eastwest;labelBackgroundColor=none;strokeColor=#666666;fontColor=#333333;fillColor=#DEDEDE;" vertex="1" parent="aTKgwxSe1R5_qSLaAjla-212">
          <mxGeometry y="290" width="60" height="40" as="geometry" />
        </mxCell>
        <mxCell id="aTKgwxSe1R5_qSLaAjla-245" value="4" style="shape=partialRectangle;html=1;whiteSpace=wrap;connectable=0;top=0;left=0;bottom=0;right=0;overflow=hidden;labelBackgroundColor=none;strokeColor=#666666;fontColor=#333333;fillColor=#DEDEDE;" vertex="1" parent="aTKgwxSe1R5_qSLaAjla-244">
          <mxGeometry width="60" height="40" as="geometry" />
        </mxCell>
        <mxCell id="aTKgwxSe1R5_qSLaAjla-246" style="shape=partialRectangle;html=1;whiteSpace=wrap;collapsible=0;dropTarget=0;pointerEvents=0;top=0;left=0;bottom=0;right=0;points=[[0,0.5],[1,0.5]];portConstraint=eastwest;labelBackgroundColor=none;strokeColor=#666666;fontColor=#333333;fillColor=#DEDEDE;" vertex="1" parent="aTKgwxSe1R5_qSLaAjla-212">
          <mxGeometry y="330" width="60" height="40" as="geometry" />
        </mxCell>
        <mxCell id="aTKgwxSe1R5_qSLaAjla-247" value="4" style="shape=partialRectangle;html=1;whiteSpace=wrap;connectable=0;top=0;left=0;bottom=0;right=0;overflow=hidden;labelBackgroundColor=none;strokeColor=#666666;fontColor=#333333;fillColor=#DEDEDE;" vertex="1" parent="aTKgwxSe1R5_qSLaAjla-246">
          <mxGeometry width="60" height="40" as="geometry" />
        </mxCell>
        <mxCell id="aTKgwxSe1R5_qSLaAjla-248" style="shape=partialRectangle;html=1;whiteSpace=wrap;collapsible=0;dropTarget=0;pointerEvents=0;top=0;left=0;bottom=0;right=0;points=[[0,0.5],[1,0.5]];portConstraint=eastwest;labelBackgroundColor=none;strokeColor=#666666;fontColor=#333333;fillColor=#DEDEDE;" vertex="1" parent="aTKgwxSe1R5_qSLaAjla-212">
          <mxGeometry y="370" width="60" height="40" as="geometry" />
        </mxCell>
        <mxCell id="aTKgwxSe1R5_qSLaAjla-249" value="4" style="shape=partialRectangle;html=1;whiteSpace=wrap;connectable=0;top=0;left=0;bottom=0;right=0;overflow=hidden;labelBackgroundColor=none;strokeColor=#666666;fontColor=#333333;fillColor=#DEDEDE;" vertex="1" parent="aTKgwxSe1R5_qSLaAjla-248">
          <mxGeometry width="60" height="40" as="geometry" />
        </mxCell>
        <mxCell id="aTKgwxSe1R5_qSLaAjla-250" style="shape=partialRectangle;html=1;whiteSpace=wrap;collapsible=0;dropTarget=0;pointerEvents=0;top=0;left=0;bottom=0;right=0;points=[[0,0.5],[1,0.5]];portConstraint=eastwest;labelBackgroundColor=none;strokeColor=#666666;fontColor=#333333;fillColor=#DEDEDE;" vertex="1" parent="aTKgwxSe1R5_qSLaAjla-212">
          <mxGeometry y="410" width="60" height="40" as="geometry" />
        </mxCell>
        <mxCell id="aTKgwxSe1R5_qSLaAjla-251" value="4" style="shape=partialRectangle;html=1;whiteSpace=wrap;connectable=0;top=0;left=0;bottom=0;right=0;overflow=hidden;labelBackgroundColor=none;strokeColor=#666666;fontColor=#333333;fillColor=#DEDEDE;" vertex="1" parent="aTKgwxSe1R5_qSLaAjla-250">
          <mxGeometry width="60" height="40" as="geometry" />
        </mxCell>
        <mxCell id="aTKgwxSe1R5_qSLaAjla-252" style="shape=partialRectangle;html=1;whiteSpace=wrap;collapsible=0;dropTarget=0;pointerEvents=0;top=0;left=0;bottom=0;right=0;points=[[0,0.5],[1,0.5]];portConstraint=eastwest;labelBackgroundColor=none;strokeColor=#666666;fontColor=#333333;fillColor=#DEDEDE;" vertex="1" parent="aTKgwxSe1R5_qSLaAjla-212">
          <mxGeometry y="450" width="60" height="40" as="geometry" />
        </mxCell>
        <mxCell id="aTKgwxSe1R5_qSLaAjla-253" value="4" style="shape=partialRectangle;html=1;whiteSpace=wrap;connectable=0;top=0;left=0;bottom=0;right=0;overflow=hidden;labelBackgroundColor=none;strokeColor=#666666;fontColor=#333333;fillColor=#DEDEDE;" vertex="1" parent="aTKgwxSe1R5_qSLaAjla-252">
          <mxGeometry width="60" height="40" as="geometry" />
        </mxCell>
        <mxCell id="aTKgwxSe1R5_qSLaAjla-254" style="shape=partialRectangle;html=1;whiteSpace=wrap;collapsible=0;dropTarget=0;pointerEvents=0;top=0;left=0;bottom=0;right=0;points=[[0,0.5],[1,0.5]];portConstraint=eastwest;labelBackgroundColor=none;strokeColor=#666666;fontColor=#333333;fillColor=#DEDEDE;" vertex="1" parent="aTKgwxSe1R5_qSLaAjla-212">
          <mxGeometry y="490" width="60" height="40" as="geometry" />
        </mxCell>
        <mxCell id="aTKgwxSe1R5_qSLaAjla-255" value="4" style="shape=partialRectangle;html=1;whiteSpace=wrap;connectable=0;top=0;left=0;bottom=0;right=0;overflow=hidden;labelBackgroundColor=none;strokeColor=#666666;fontColor=#333333;fillColor=#DEDEDE;" vertex="1" parent="aTKgwxSe1R5_qSLaAjla-254">
          <mxGeometry width="60" height="40" as="geometry" />
        </mxCell>
        <mxCell id="aTKgwxSe1R5_qSLaAjla-256" style="shape=partialRectangle;html=1;whiteSpace=wrap;collapsible=0;dropTarget=0;pointerEvents=0;top=0;left=0;bottom=0;right=0;points=[[0,0.5],[1,0.5]];portConstraint=eastwest;labelBackgroundColor=none;strokeColor=#666666;fontColor=#333333;fillColor=#DEDEDE;" vertex="1" parent="aTKgwxSe1R5_qSLaAjla-212">
          <mxGeometry y="530" width="60" height="40" as="geometry" />
        </mxCell>
        <mxCell id="aTKgwxSe1R5_qSLaAjla-257" value="4" style="shape=partialRectangle;html=1;whiteSpace=wrap;connectable=0;top=0;left=0;bottom=0;right=0;overflow=hidden;labelBackgroundColor=none;strokeColor=#666666;fontColor=#333333;fillColor=#DEDEDE;" vertex="1" parent="aTKgwxSe1R5_qSLaAjla-256">
          <mxGeometry width="60" height="40" as="geometry" />
        </mxCell>
        <mxCell id="aTKgwxSe1R5_qSLaAjla-258" style="shape=partialRectangle;html=1;whiteSpace=wrap;collapsible=0;dropTarget=0;pointerEvents=0;top=0;left=0;bottom=0;right=0;points=[[0,0.5],[1,0.5]];portConstraint=eastwest;labelBackgroundColor=none;strokeColor=#666666;fontColor=#333333;fillColor=#DEDEDE;" vertex="1" parent="aTKgwxSe1R5_qSLaAjla-212">
          <mxGeometry y="570" width="60" height="40" as="geometry" />
        </mxCell>
        <mxCell id="aTKgwxSe1R5_qSLaAjla-259" value="4" style="shape=partialRectangle;html=1;whiteSpace=wrap;connectable=0;top=0;left=0;bottom=0;right=0;overflow=hidden;labelBackgroundColor=none;strokeColor=#666666;fontColor=#333333;fillColor=#DEDEDE;" vertex="1" parent="aTKgwxSe1R5_qSLaAjla-258">
          <mxGeometry width="60" height="40" as="geometry" />
        </mxCell>
        <mxCell id="aTKgwxSe1R5_qSLaAjla-260" style="shape=partialRectangle;html=1;whiteSpace=wrap;collapsible=0;dropTarget=0;pointerEvents=0;top=0;left=0;bottom=0;right=0;points=[[0,0.5],[1,0.5]];portConstraint=eastwest;labelBackgroundColor=none;strokeColor=#666666;fontColor=#333333;fillColor=#DEDEDE;" vertex="1" parent="aTKgwxSe1R5_qSLaAjla-212">
          <mxGeometry y="610" width="60" height="40" as="geometry" />
        </mxCell>
        <mxCell id="aTKgwxSe1R5_qSLaAjla-261" value="4" style="shape=partialRectangle;html=1;whiteSpace=wrap;connectable=0;top=0;left=0;bottom=0;right=0;overflow=hidden;labelBackgroundColor=none;strokeColor=#666666;fontColor=#333333;fillColor=#DEDEDE;" vertex="1" parent="aTKgwxSe1R5_qSLaAjla-260">
          <mxGeometry width="60" height="40" as="geometry" />
        </mxCell>
        <mxCell id="aTKgwxSe1R5_qSLaAjla-262" style="shape=partialRectangle;html=1;whiteSpace=wrap;collapsible=0;dropTarget=0;pointerEvents=0;top=0;left=0;bottom=0;right=0;points=[[0,0.5],[1,0.5]];portConstraint=eastwest;labelBackgroundColor=none;strokeColor=#666666;fontColor=#333333;fillColor=#DEDEDE;" vertex="1" parent="aTKgwxSe1R5_qSLaAjla-212">
          <mxGeometry y="650" width="60" height="40" as="geometry" />
        </mxCell>
        <mxCell id="aTKgwxSe1R5_qSLaAjla-263" value="4" style="shape=partialRectangle;html=1;whiteSpace=wrap;connectable=0;top=0;left=0;bottom=0;right=0;overflow=hidden;labelBackgroundColor=none;strokeColor=#666666;fontColor=#333333;fillColor=#DEDEDE;" vertex="1" parent="aTKgwxSe1R5_qSLaAjla-262">
          <mxGeometry width="60" height="40" as="geometry" />
        </mxCell>
        <mxCell id="aTKgwxSe1R5_qSLaAjla-264" style="shape=partialRectangle;html=1;whiteSpace=wrap;collapsible=0;dropTarget=0;pointerEvents=0;fillColor=none;top=0;left=0;bottom=0;right=0;points=[[0,0.5],[1,0.5]];portConstraint=eastwest;" vertex="1" parent="aTKgwxSe1R5_qSLaAjla-212">
          <mxGeometry y="690" width="60" height="40" as="geometry" />
        </mxCell>
        <mxCell id="aTKgwxSe1R5_qSLaAjla-265" value="4" style="shape=partialRectangle;html=1;whiteSpace=wrap;connectable=0;fillColor=none;top=0;left=0;bottom=0;right=0;overflow=hidden;" vertex="1" parent="aTKgwxSe1R5_qSLaAjla-264">
          <mxGeometry width="60" height="40" as="geometry" />
        </mxCell>
        <mxCell id="aTKgwxSe1R5_qSLaAjla-348" value="" style="shape=table;html=1;whiteSpace=wrap;startSize=0;container=1;collapsible=0;childLayout=tableLayout;shadow=0;strokeColor=#FFFFFF;gradientColor=none;fontFamily=Helvetica;fontSize=15;fontColor=#333333;fillColor=#DEDEDE;" vertex="1" parent="1">
          <mxGeometry x="385" y="150" width="60" height="730" as="geometry" />
        </mxCell>
        <mxCell id="aTKgwxSe1R5_qSLaAjla-349" value="" style="shape=partialRectangle;html=1;whiteSpace=wrap;collapsible=0;dropTarget=0;pointerEvents=0;top=0;left=0;bottom=0;right=0;points=[[0,0.5],[1,0.5]];portConstraint=eastwest;labelBackgroundColor=none;strokeColor=#666666;fontColor=#333333;fillColor=#DEDEDE;" vertex="1" parent="aTKgwxSe1R5_qSLaAjla-348">
          <mxGeometry width="60" height="40" as="geometry" />
        </mxCell>
        <mxCell id="aTKgwxSe1R5_qSLaAjla-350" value="&lt;font&gt;&lt;font style=&quot;font-size: 12px&quot;&gt;-&lt;/font&gt;&lt;br&gt;&lt;/font&gt;" style="shape=partialRectangle;html=1;whiteSpace=wrap;connectable=0;top=0;left=0;bottom=0;right=0;overflow=hidden;labelBackgroundColor=none;strokeColor=#666666;fontColor=#333333;fillColor=#DEDEDE;" vertex="1" parent="aTKgwxSe1R5_qSLaAjla-349">
          <mxGeometry width="60" height="40" as="geometry" />
        </mxCell>
        <mxCell id="aTKgwxSe1R5_qSLaAjla-351" style="shape=partialRectangle;html=1;whiteSpace=wrap;collapsible=0;dropTarget=0;pointerEvents=0;top=0;left=0;bottom=0;right=0;points=[[0,0.5],[1,0.5]];portConstraint=eastwest;labelBackgroundColor=none;strokeColor=#666666;fontColor=#333333;fillColor=#DEDEDE;" vertex="1" parent="aTKgwxSe1R5_qSLaAjla-348">
          <mxGeometry y="40" width="60" height="40" as="geometry" />
        </mxCell>
        <mxCell id="aTKgwxSe1R5_qSLaAjla-352" value="-" style="shape=partialRectangle;html=1;whiteSpace=wrap;connectable=0;top=0;left=0;bottom=0;right=0;overflow=hidden;labelBackgroundColor=none;strokeColor=#666666;fontColor=#333333;fillColor=#DEDEDE;" vertex="1" parent="aTKgwxSe1R5_qSLaAjla-351">
          <mxGeometry width="60" height="40" as="geometry" />
        </mxCell>
        <mxCell id="aTKgwxSe1R5_qSLaAjla-353" style="shape=partialRectangle;html=1;whiteSpace=wrap;collapsible=0;dropTarget=0;pointerEvents=0;top=0;left=0;bottom=0;right=0;points=[[0,0.5],[1,0.5]];portConstraint=eastwest;sketch=0;shadow=0;labelBackgroundColor=none;strokeColor=#666666;fontColor=#333333;fillColor=#DEDEDE;" vertex="1" parent="aTKgwxSe1R5_qSLaAjla-348">
          <mxGeometry y="80" width="60" height="50" as="geometry" />
        </mxCell>
        <mxCell id="aTKgwxSe1R5_qSLaAjla-354" value="-" style="shape=partialRectangle;html=1;whiteSpace=wrap;connectable=0;top=0;left=0;bottom=0;right=0;overflow=hidden;sketch=0;shadow=0;labelBackgroundColor=none;strokeColor=#666666;fontColor=#333333;fillColor=#DEDEDE;" vertex="1" parent="aTKgwxSe1R5_qSLaAjla-353">
          <mxGeometry width="60" height="50" as="geometry" />
        </mxCell>
        <mxCell id="aTKgwxSe1R5_qSLaAjla-355" style="shape=partialRectangle;html=1;whiteSpace=wrap;collapsible=0;dropTarget=0;pointerEvents=0;top=0;left=0;bottom=0;right=0;points=[[0,0.5],[1,0.5]];portConstraint=eastwest;sketch=0;shadow=0;labelBackgroundColor=none;strokeColor=#666666;fontColor=#333333;fillColor=#DEDEDE;" vertex="1" parent="aTKgwxSe1R5_qSLaAjla-348">
          <mxGeometry y="130" width="60" height="40" as="geometry" />
        </mxCell>
        <mxCell id="aTKgwxSe1R5_qSLaAjla-356" value="-" style="shape=partialRectangle;html=1;whiteSpace=wrap;connectable=0;top=0;left=0;bottom=0;right=0;overflow=hidden;sketch=0;shadow=0;labelBackgroundColor=none;strokeColor=#666666;fontColor=#333333;fillColor=#DEDEDE;" vertex="1" parent="aTKgwxSe1R5_qSLaAjla-355">
          <mxGeometry width="60" height="40" as="geometry" />
        </mxCell>
        <mxCell id="aTKgwxSe1R5_qSLaAjla-357" style="shape=partialRectangle;html=1;whiteSpace=wrap;collapsible=0;dropTarget=0;pointerEvents=0;top=0;left=0;bottom=0;right=0;points=[[0,0.5],[1,0.5]];portConstraint=eastwest;sketch=0;shadow=0;labelBackgroundColor=none;strokeColor=#666666;fontColor=#333333;fillColor=#DEDEDE;" vertex="1" parent="aTKgwxSe1R5_qSLaAjla-348">
          <mxGeometry y="170" width="60" height="40" as="geometry" />
        </mxCell>
        <mxCell id="aTKgwxSe1R5_qSLaAjla-358" value="-" style="shape=partialRectangle;html=1;whiteSpace=wrap;connectable=0;top=0;left=0;bottom=0;right=0;overflow=hidden;sketch=0;shadow=0;labelBackgroundColor=none;strokeColor=#666666;fontColor=#333333;fillColor=#DEDEDE;" vertex="1" parent="aTKgwxSe1R5_qSLaAjla-357">
          <mxGeometry width="60" height="40" as="geometry" />
        </mxCell>
        <mxCell id="aTKgwxSe1R5_qSLaAjla-359" style="shape=partialRectangle;html=1;whiteSpace=wrap;collapsible=0;dropTarget=0;pointerEvents=0;top=0;left=0;bottom=0;right=0;points=[[0,0.5],[1,0.5]];portConstraint=eastwest;labelBackgroundColor=none;strokeColor=#666666;fontColor=#333333;fillColor=#DEDEDE;" vertex="1" parent="aTKgwxSe1R5_qSLaAjla-348">
          <mxGeometry y="210" width="60" height="40" as="geometry" />
        </mxCell>
        <mxCell id="aTKgwxSe1R5_qSLaAjla-360" value="-" style="shape=partialRectangle;html=1;whiteSpace=wrap;connectable=0;top=0;left=0;bottom=0;right=0;overflow=hidden;labelBackgroundColor=none;strokeColor=#666666;fontColor=#333333;fillColor=#DEDEDE;" vertex="1" parent="aTKgwxSe1R5_qSLaAjla-359">
          <mxGeometry width="60" height="40" as="geometry" />
        </mxCell>
        <mxCell id="aTKgwxSe1R5_qSLaAjla-361" style="shape=partialRectangle;html=1;whiteSpace=wrap;collapsible=0;dropTarget=0;pointerEvents=0;top=0;left=0;bottom=0;right=0;points=[[0,0.5],[1,0.5]];portConstraint=eastwest;labelBackgroundColor=none;strokeColor=#666666;fontColor=#333333;fillColor=#DEDEDE;" vertex="1" parent="aTKgwxSe1R5_qSLaAjla-348">
          <mxGeometry y="250" width="60" height="40" as="geometry" />
        </mxCell>
        <mxCell id="aTKgwxSe1R5_qSLaAjla-362" value="-" style="shape=partialRectangle;html=1;whiteSpace=wrap;connectable=0;top=0;left=0;bottom=0;right=0;overflow=hidden;labelBackgroundColor=none;strokeColor=#666666;fontColor=#333333;fillColor=#DEDEDE;" vertex="1" parent="aTKgwxSe1R5_qSLaAjla-361">
          <mxGeometry width="60" height="40" as="geometry" />
        </mxCell>
        <mxCell id="aTKgwxSe1R5_qSLaAjla-363" style="shape=partialRectangle;html=1;whiteSpace=wrap;collapsible=0;dropTarget=0;pointerEvents=0;top=0;left=0;bottom=0;right=0;points=[[0,0.5],[1,0.5]];portConstraint=eastwest;labelBackgroundColor=none;strokeColor=#666666;fontColor=#333333;fillColor=#DEDEDE;" vertex="1" parent="aTKgwxSe1R5_qSLaAjla-348">
          <mxGeometry y="290" width="60" height="40" as="geometry" />
        </mxCell>
        <mxCell id="aTKgwxSe1R5_qSLaAjla-364" value="-" style="shape=partialRectangle;html=1;whiteSpace=wrap;connectable=0;top=0;left=0;bottom=0;right=0;overflow=hidden;labelBackgroundColor=none;strokeColor=#666666;fontColor=#333333;fillColor=#DEDEDE;" vertex="1" parent="aTKgwxSe1R5_qSLaAjla-363">
          <mxGeometry width="60" height="40" as="geometry" />
        </mxCell>
        <mxCell id="aTKgwxSe1R5_qSLaAjla-365" style="shape=partialRectangle;html=1;whiteSpace=wrap;collapsible=0;dropTarget=0;pointerEvents=0;top=0;left=0;bottom=0;right=0;points=[[0,0.5],[1,0.5]];portConstraint=eastwest;labelBackgroundColor=none;strokeColor=#666666;fontColor=#333333;fillColor=#DEDEDE;" vertex="1" parent="aTKgwxSe1R5_qSLaAjla-348">
          <mxGeometry y="330" width="60" height="40" as="geometry" />
        </mxCell>
        <mxCell id="aTKgwxSe1R5_qSLaAjla-366" value="-" style="shape=partialRectangle;html=1;whiteSpace=wrap;connectable=0;top=0;left=0;bottom=0;right=0;overflow=hidden;labelBackgroundColor=none;strokeColor=#666666;fontColor=#333333;fillColor=#DEDEDE;" vertex="1" parent="aTKgwxSe1R5_qSLaAjla-365">
          <mxGeometry width="60" height="40" as="geometry" />
        </mxCell>
        <mxCell id="aTKgwxSe1R5_qSLaAjla-367" style="shape=partialRectangle;html=1;whiteSpace=wrap;collapsible=0;dropTarget=0;pointerEvents=0;top=0;left=0;bottom=0;right=0;points=[[0,0.5],[1,0.5]];portConstraint=eastwest;labelBackgroundColor=none;strokeColor=#666666;fontColor=#333333;fillColor=#DEDEDE;" vertex="1" parent="aTKgwxSe1R5_qSLaAjla-348">
          <mxGeometry y="370" width="60" height="40" as="geometry" />
        </mxCell>
        <mxCell id="aTKgwxSe1R5_qSLaAjla-368" value="-" style="shape=partialRectangle;html=1;whiteSpace=wrap;connectable=0;top=0;left=0;bottom=0;right=0;overflow=hidden;labelBackgroundColor=none;strokeColor=#666666;fontColor=#333333;fillColor=#DEDEDE;" vertex="1" parent="aTKgwxSe1R5_qSLaAjla-367">
          <mxGeometry width="60" height="40" as="geometry" />
        </mxCell>
        <mxCell id="aTKgwxSe1R5_qSLaAjla-369" style="shape=partialRectangle;html=1;whiteSpace=wrap;collapsible=0;dropTarget=0;pointerEvents=0;top=0;left=0;bottom=0;right=0;points=[[0,0.5],[1,0.5]];portConstraint=eastwest;labelBackgroundColor=none;strokeColor=#666666;fontColor=#333333;fillColor=#DEDEDE;" vertex="1" parent="aTKgwxSe1R5_qSLaAjla-348">
          <mxGeometry y="410" width="60" height="40" as="geometry" />
        </mxCell>
        <mxCell id="aTKgwxSe1R5_qSLaAjla-370" value="-" style="shape=partialRectangle;html=1;whiteSpace=wrap;connectable=0;top=0;left=0;bottom=0;right=0;overflow=hidden;labelBackgroundColor=none;strokeColor=#666666;fontColor=#333333;fillColor=#DEDEDE;" vertex="1" parent="aTKgwxSe1R5_qSLaAjla-369">
          <mxGeometry width="60" height="40" as="geometry" />
        </mxCell>
        <mxCell id="aTKgwxSe1R5_qSLaAjla-371" style="shape=partialRectangle;html=1;whiteSpace=wrap;collapsible=0;dropTarget=0;pointerEvents=0;top=0;left=0;bottom=0;right=0;points=[[0,0.5],[1,0.5]];portConstraint=eastwest;labelBackgroundColor=none;strokeColor=#666666;fontColor=#333333;fillColor=#DEDEDE;" vertex="1" parent="aTKgwxSe1R5_qSLaAjla-348">
          <mxGeometry y="450" width="60" height="40" as="geometry" />
        </mxCell>
        <mxCell id="aTKgwxSe1R5_qSLaAjla-372" value="-" style="shape=partialRectangle;html=1;whiteSpace=wrap;connectable=0;top=0;left=0;bottom=0;right=0;overflow=hidden;labelBackgroundColor=none;strokeColor=#666666;fontColor=#333333;fillColor=#DEDEDE;" vertex="1" parent="aTKgwxSe1R5_qSLaAjla-371">
          <mxGeometry width="60" height="40" as="geometry" />
        </mxCell>
        <mxCell id="aTKgwxSe1R5_qSLaAjla-373" style="shape=partialRectangle;html=1;whiteSpace=wrap;collapsible=0;dropTarget=0;pointerEvents=0;top=0;left=0;bottom=0;right=0;points=[[0,0.5],[1,0.5]];portConstraint=eastwest;labelBackgroundColor=none;strokeColor=#666666;fontColor=#333333;fillColor=#DEDEDE;" vertex="1" parent="aTKgwxSe1R5_qSLaAjla-348">
          <mxGeometry y="490" width="60" height="40" as="geometry" />
        </mxCell>
        <mxCell id="aTKgwxSe1R5_qSLaAjla-374" value="-" style="shape=partialRectangle;html=1;whiteSpace=wrap;connectable=0;top=0;left=0;bottom=0;right=0;overflow=hidden;labelBackgroundColor=none;strokeColor=#666666;fontColor=#333333;fillColor=#DEDEDE;" vertex="1" parent="aTKgwxSe1R5_qSLaAjla-373">
          <mxGeometry width="60" height="40" as="geometry" />
        </mxCell>
        <mxCell id="aTKgwxSe1R5_qSLaAjla-375" style="shape=partialRectangle;html=1;whiteSpace=wrap;collapsible=0;dropTarget=0;pointerEvents=0;top=0;left=0;bottom=0;right=0;points=[[0,0.5],[1,0.5]];portConstraint=eastwest;labelBackgroundColor=none;strokeColor=#666666;fontColor=#333333;fillColor=#DEDEDE;" vertex="1" parent="aTKgwxSe1R5_qSLaAjla-348">
          <mxGeometry y="530" width="60" height="40" as="geometry" />
        </mxCell>
        <mxCell id="aTKgwxSe1R5_qSLaAjla-376" value="-" style="shape=partialRectangle;html=1;whiteSpace=wrap;connectable=0;top=0;left=0;bottom=0;right=0;overflow=hidden;labelBackgroundColor=none;strokeColor=#666666;fontColor=#333333;fillColor=#DEDEDE;" vertex="1" parent="aTKgwxSe1R5_qSLaAjla-375">
          <mxGeometry width="60" height="40" as="geometry" />
        </mxCell>
        <mxCell id="aTKgwxSe1R5_qSLaAjla-377" style="shape=partialRectangle;html=1;whiteSpace=wrap;collapsible=0;dropTarget=0;pointerEvents=0;top=0;left=0;bottom=0;right=0;points=[[0,0.5],[1,0.5]];portConstraint=eastwest;labelBackgroundColor=none;strokeColor=#666666;fontColor=#333333;fillColor=#DEDEDE;" vertex="1" parent="aTKgwxSe1R5_qSLaAjla-348">
          <mxGeometry y="570" width="60" height="40" as="geometry" />
        </mxCell>
        <mxCell id="aTKgwxSe1R5_qSLaAjla-378" value="-" style="shape=partialRectangle;html=1;whiteSpace=wrap;connectable=0;top=0;left=0;bottom=0;right=0;overflow=hidden;labelBackgroundColor=none;strokeColor=#666666;fontColor=#333333;fillColor=#DEDEDE;" vertex="1" parent="aTKgwxSe1R5_qSLaAjla-377">
          <mxGeometry width="60" height="40" as="geometry" />
        </mxCell>
        <mxCell id="aTKgwxSe1R5_qSLaAjla-379" style="shape=partialRectangle;html=1;whiteSpace=wrap;collapsible=0;dropTarget=0;pointerEvents=0;top=0;left=0;bottom=0;right=0;points=[[0,0.5],[1,0.5]];portConstraint=eastwest;labelBackgroundColor=none;strokeColor=#666666;fontColor=#333333;fillColor=#DEDEDE;" vertex="1" parent="aTKgwxSe1R5_qSLaAjla-348">
          <mxGeometry y="610" width="60" height="40" as="geometry" />
        </mxCell>
        <mxCell id="aTKgwxSe1R5_qSLaAjla-380" value="-" style="shape=partialRectangle;html=1;whiteSpace=wrap;connectable=0;top=0;left=0;bottom=0;right=0;overflow=hidden;labelBackgroundColor=none;strokeColor=#666666;fontColor=#333333;fillColor=#DEDEDE;" vertex="1" parent="aTKgwxSe1R5_qSLaAjla-379">
          <mxGeometry width="60" height="40" as="geometry" />
        </mxCell>
        <mxCell id="aTKgwxSe1R5_qSLaAjla-381" style="shape=partialRectangle;html=1;whiteSpace=wrap;collapsible=0;dropTarget=0;pointerEvents=0;top=0;left=0;bottom=0;right=0;points=[[0,0.5],[1,0.5]];portConstraint=eastwest;labelBackgroundColor=none;strokeColor=#666666;fontColor=#333333;fillColor=#DEDEDE;" vertex="1" parent="aTKgwxSe1R5_qSLaAjla-348">
          <mxGeometry y="650" width="60" height="40" as="geometry" />
        </mxCell>
        <mxCell id="aTKgwxSe1R5_qSLaAjla-382" value="-" style="shape=partialRectangle;html=1;whiteSpace=wrap;connectable=0;top=0;left=0;bottom=0;right=0;overflow=hidden;labelBackgroundColor=none;strokeColor=#666666;fontColor=#333333;fillColor=#DEDEDE;" vertex="1" parent="aTKgwxSe1R5_qSLaAjla-381">
          <mxGeometry width="60" height="40" as="geometry" />
        </mxCell>
        <mxCell id="aTKgwxSe1R5_qSLaAjla-383" style="shape=partialRectangle;html=1;whiteSpace=wrap;collapsible=0;dropTarget=0;pointerEvents=0;fillColor=none;top=0;left=0;bottom=0;right=0;points=[[0,0.5],[1,0.5]];portConstraint=eastwest;" vertex="1" parent="aTKgwxSe1R5_qSLaAjla-348">
          <mxGeometry y="690" width="60" height="40" as="geometry" />
        </mxCell>
        <mxCell id="aTKgwxSe1R5_qSLaAjla-384" value="-" style="shape=partialRectangle;html=1;whiteSpace=wrap;connectable=0;fillColor=none;top=0;left=0;bottom=0;right=0;overflow=hidden;" vertex="1" parent="aTKgwxSe1R5_qSLaAjla-383">
          <mxGeometry width="60" height="40" as="geometry" />
        </mxCell>
        <mxCell id="aTKgwxSe1R5_qSLaAjla-385" value="" style="shape=table;html=1;whiteSpace=wrap;startSize=0;container=1;collapsible=0;childLayout=tableLayout;shadow=0;strokeColor=#FFFFFF;gradientColor=none;fontFamily=Helvetica;fontSize=15;fontColor=#333333;fillColor=#DEDEDE;" vertex="1" parent="1">
          <mxGeometry x="535" y="150" width="55" height="730" as="geometry" />
        </mxCell>
        <mxCell id="aTKgwxSe1R5_qSLaAjla-386" value="" style="shape=partialRectangle;html=1;whiteSpace=wrap;collapsible=0;dropTarget=0;pointerEvents=0;top=0;left=0;bottom=0;right=0;points=[[0,0.5],[1,0.5]];portConstraint=eastwest;labelBackgroundColor=none;strokeColor=#666666;fontColor=#333333;fillColor=#DEDEDE;" vertex="1" parent="aTKgwxSe1R5_qSLaAjla-385">
          <mxGeometry width="55" height="40" as="geometry" />
        </mxCell>
        <mxCell id="aTKgwxSe1R5_qSLaAjla-387" value="&lt;font&gt;&lt;font style=&quot;font-size: 12px&quot;&gt;-&lt;/font&gt;&lt;br&gt;&lt;/font&gt;" style="shape=partialRectangle;html=1;whiteSpace=wrap;connectable=0;top=0;left=0;bottom=0;right=0;overflow=hidden;labelBackgroundColor=none;strokeColor=#666666;fontColor=#333333;fillColor=#DEDEDE;" vertex="1" parent="aTKgwxSe1R5_qSLaAjla-386">
          <mxGeometry width="55" height="40" as="geometry" />
        </mxCell>
        <mxCell id="aTKgwxSe1R5_qSLaAjla-388" style="shape=partialRectangle;html=1;whiteSpace=wrap;collapsible=0;dropTarget=0;pointerEvents=0;top=0;left=0;bottom=0;right=0;points=[[0,0.5],[1,0.5]];portConstraint=eastwest;labelBackgroundColor=none;strokeColor=#666666;fontColor=#333333;fillColor=#DEDEDE;" vertex="1" parent="aTKgwxSe1R5_qSLaAjla-385">
          <mxGeometry y="40" width="55" height="40" as="geometry" />
        </mxCell>
        <mxCell id="aTKgwxSe1R5_qSLaAjla-389" value="-" style="shape=partialRectangle;html=1;whiteSpace=wrap;connectable=0;top=0;left=0;bottom=0;right=0;overflow=hidden;labelBackgroundColor=none;strokeColor=#666666;fontColor=#333333;fillColor=#DEDEDE;" vertex="1" parent="aTKgwxSe1R5_qSLaAjla-388">
          <mxGeometry width="55" height="40" as="geometry" />
        </mxCell>
        <mxCell id="aTKgwxSe1R5_qSLaAjla-390" style="shape=partialRectangle;html=1;whiteSpace=wrap;collapsible=0;dropTarget=0;pointerEvents=0;top=0;left=0;bottom=0;right=0;points=[[0,0.5],[1,0.5]];portConstraint=eastwest;sketch=0;shadow=0;labelBackgroundColor=none;strokeColor=#666666;fontColor=#333333;fillColor=#DEDEDE;" vertex="1" parent="aTKgwxSe1R5_qSLaAjla-385">
          <mxGeometry y="80" width="55" height="50" as="geometry" />
        </mxCell>
        <mxCell id="aTKgwxSe1R5_qSLaAjla-391" value="-" style="shape=partialRectangle;html=1;whiteSpace=wrap;connectable=0;top=0;left=0;bottom=0;right=0;overflow=hidden;sketch=0;shadow=0;labelBackgroundColor=none;strokeColor=#666666;fontColor=#333333;fillColor=#DEDEDE;" vertex="1" parent="aTKgwxSe1R5_qSLaAjla-390">
          <mxGeometry width="55" height="50" as="geometry" />
        </mxCell>
        <mxCell id="aTKgwxSe1R5_qSLaAjla-392" style="shape=partialRectangle;html=1;whiteSpace=wrap;collapsible=0;dropTarget=0;pointerEvents=0;top=0;left=0;bottom=0;right=0;points=[[0,0.5],[1,0.5]];portConstraint=eastwest;sketch=0;shadow=0;labelBackgroundColor=none;strokeColor=#666666;fontColor=#333333;fillColor=#DEDEDE;" vertex="1" parent="aTKgwxSe1R5_qSLaAjla-385">
          <mxGeometry y="130" width="55" height="40" as="geometry" />
        </mxCell>
        <mxCell id="aTKgwxSe1R5_qSLaAjla-393" value="-" style="shape=partialRectangle;html=1;whiteSpace=wrap;connectable=0;top=0;left=0;bottom=0;right=0;overflow=hidden;sketch=0;shadow=0;labelBackgroundColor=none;strokeColor=#666666;fontColor=#333333;fillColor=#DEDEDE;" vertex="1" parent="aTKgwxSe1R5_qSLaAjla-392">
          <mxGeometry width="55" height="40" as="geometry" />
        </mxCell>
        <mxCell id="aTKgwxSe1R5_qSLaAjla-394" style="shape=partialRectangle;html=1;whiteSpace=wrap;collapsible=0;dropTarget=0;pointerEvents=0;top=0;left=0;bottom=0;right=0;points=[[0,0.5],[1,0.5]];portConstraint=eastwest;sketch=0;shadow=0;labelBackgroundColor=none;strokeColor=#666666;fontColor=#333333;fillColor=#DEDEDE;" vertex="1" parent="aTKgwxSe1R5_qSLaAjla-385">
          <mxGeometry y="170" width="55" height="40" as="geometry" />
        </mxCell>
        <mxCell id="aTKgwxSe1R5_qSLaAjla-395" value="-" style="shape=partialRectangle;html=1;whiteSpace=wrap;connectable=0;top=0;left=0;bottom=0;right=0;overflow=hidden;sketch=0;shadow=0;labelBackgroundColor=none;strokeColor=#666666;fontColor=#333333;fillColor=#DEDEDE;" vertex="1" parent="aTKgwxSe1R5_qSLaAjla-394">
          <mxGeometry width="55" height="40" as="geometry" />
        </mxCell>
        <mxCell id="aTKgwxSe1R5_qSLaAjla-396" style="shape=partialRectangle;html=1;whiteSpace=wrap;collapsible=0;dropTarget=0;pointerEvents=0;top=0;left=0;bottom=0;right=0;points=[[0,0.5],[1,0.5]];portConstraint=eastwest;labelBackgroundColor=none;strokeColor=#666666;fontColor=#333333;fillColor=#DEDEDE;" vertex="1" parent="aTKgwxSe1R5_qSLaAjla-385">
          <mxGeometry y="210" width="55" height="40" as="geometry" />
        </mxCell>
        <mxCell id="aTKgwxSe1R5_qSLaAjla-397" value="-" style="shape=partialRectangle;html=1;whiteSpace=wrap;connectable=0;top=0;left=0;bottom=0;right=0;overflow=hidden;labelBackgroundColor=none;strokeColor=#666666;fontColor=#333333;fillColor=#DEDEDE;" vertex="1" parent="aTKgwxSe1R5_qSLaAjla-396">
          <mxGeometry width="55" height="40" as="geometry" />
        </mxCell>
        <mxCell id="aTKgwxSe1R5_qSLaAjla-398" style="shape=partialRectangle;html=1;whiteSpace=wrap;collapsible=0;dropTarget=0;pointerEvents=0;top=0;left=0;bottom=0;right=0;points=[[0,0.5],[1,0.5]];portConstraint=eastwest;labelBackgroundColor=none;strokeColor=#666666;fontColor=#333333;fillColor=#DEDEDE;" vertex="1" parent="aTKgwxSe1R5_qSLaAjla-385">
          <mxGeometry y="250" width="55" height="40" as="geometry" />
        </mxCell>
        <mxCell id="aTKgwxSe1R5_qSLaAjla-399" value="-" style="shape=partialRectangle;html=1;whiteSpace=wrap;connectable=0;top=0;left=0;bottom=0;right=0;overflow=hidden;labelBackgroundColor=none;strokeColor=#666666;fontColor=#333333;fillColor=#DEDEDE;" vertex="1" parent="aTKgwxSe1R5_qSLaAjla-398">
          <mxGeometry width="55" height="40" as="geometry" />
        </mxCell>
        <mxCell id="aTKgwxSe1R5_qSLaAjla-400" style="shape=partialRectangle;html=1;whiteSpace=wrap;collapsible=0;dropTarget=0;pointerEvents=0;top=0;left=0;bottom=0;right=0;points=[[0,0.5],[1,0.5]];portConstraint=eastwest;labelBackgroundColor=none;strokeColor=#666666;fontColor=#333333;fillColor=#DEDEDE;" vertex="1" parent="aTKgwxSe1R5_qSLaAjla-385">
          <mxGeometry y="290" width="55" height="40" as="geometry" />
        </mxCell>
        <mxCell id="aTKgwxSe1R5_qSLaAjla-401" value="-" style="shape=partialRectangle;html=1;whiteSpace=wrap;connectable=0;top=0;left=0;bottom=0;right=0;overflow=hidden;labelBackgroundColor=none;strokeColor=#666666;fontColor=#333333;fillColor=#DEDEDE;" vertex="1" parent="aTKgwxSe1R5_qSLaAjla-400">
          <mxGeometry width="55" height="40" as="geometry" />
        </mxCell>
        <mxCell id="aTKgwxSe1R5_qSLaAjla-402" style="shape=partialRectangle;html=1;whiteSpace=wrap;collapsible=0;dropTarget=0;pointerEvents=0;top=0;left=0;bottom=0;right=0;points=[[0,0.5],[1,0.5]];portConstraint=eastwest;labelBackgroundColor=none;strokeColor=#666666;fontColor=#333333;fillColor=#DEDEDE;" vertex="1" parent="aTKgwxSe1R5_qSLaAjla-385">
          <mxGeometry y="330" width="55" height="40" as="geometry" />
        </mxCell>
        <mxCell id="aTKgwxSe1R5_qSLaAjla-403" value="-" style="shape=partialRectangle;html=1;whiteSpace=wrap;connectable=0;top=0;left=0;bottom=0;right=0;overflow=hidden;labelBackgroundColor=none;strokeColor=#666666;fontColor=#333333;fillColor=#DEDEDE;" vertex="1" parent="aTKgwxSe1R5_qSLaAjla-402">
          <mxGeometry width="55" height="40" as="geometry" />
        </mxCell>
        <mxCell id="aTKgwxSe1R5_qSLaAjla-404" style="shape=partialRectangle;html=1;whiteSpace=wrap;collapsible=0;dropTarget=0;pointerEvents=0;top=0;left=0;bottom=0;right=0;points=[[0,0.5],[1,0.5]];portConstraint=eastwest;labelBackgroundColor=none;strokeColor=#666666;fontColor=#333333;fillColor=#DEDEDE;" vertex="1" parent="aTKgwxSe1R5_qSLaAjla-385">
          <mxGeometry y="370" width="55" height="40" as="geometry" />
        </mxCell>
        <mxCell id="aTKgwxSe1R5_qSLaAjla-405" value="-" style="shape=partialRectangle;html=1;whiteSpace=wrap;connectable=0;top=0;left=0;bottom=0;right=0;overflow=hidden;labelBackgroundColor=none;strokeColor=#666666;fontColor=#333333;fillColor=#DEDEDE;" vertex="1" parent="aTKgwxSe1R5_qSLaAjla-404">
          <mxGeometry width="55" height="40" as="geometry" />
        </mxCell>
        <mxCell id="aTKgwxSe1R5_qSLaAjla-406" style="shape=partialRectangle;html=1;whiteSpace=wrap;collapsible=0;dropTarget=0;pointerEvents=0;top=0;left=0;bottom=0;right=0;points=[[0,0.5],[1,0.5]];portConstraint=eastwest;labelBackgroundColor=none;strokeColor=#666666;fontColor=#333333;fillColor=#DEDEDE;" vertex="1" parent="aTKgwxSe1R5_qSLaAjla-385">
          <mxGeometry y="410" width="55" height="40" as="geometry" />
        </mxCell>
        <mxCell id="aTKgwxSe1R5_qSLaAjla-407" value="-" style="shape=partialRectangle;html=1;whiteSpace=wrap;connectable=0;top=0;left=0;bottom=0;right=0;overflow=hidden;labelBackgroundColor=none;strokeColor=#666666;fontColor=#333333;fillColor=#DEDEDE;" vertex="1" parent="aTKgwxSe1R5_qSLaAjla-406">
          <mxGeometry width="55" height="40" as="geometry" />
        </mxCell>
        <mxCell id="aTKgwxSe1R5_qSLaAjla-408" style="shape=partialRectangle;html=1;whiteSpace=wrap;collapsible=0;dropTarget=0;pointerEvents=0;top=0;left=0;bottom=0;right=0;points=[[0,0.5],[1,0.5]];portConstraint=eastwest;labelBackgroundColor=none;strokeColor=#666666;fontColor=#333333;fillColor=#DEDEDE;" vertex="1" parent="aTKgwxSe1R5_qSLaAjla-385">
          <mxGeometry y="450" width="55" height="40" as="geometry" />
        </mxCell>
        <mxCell id="aTKgwxSe1R5_qSLaAjla-409" value="-" style="shape=partialRectangle;html=1;whiteSpace=wrap;connectable=0;top=0;left=0;bottom=0;right=0;overflow=hidden;labelBackgroundColor=none;strokeColor=#666666;fontColor=#333333;fillColor=#DEDEDE;" vertex="1" parent="aTKgwxSe1R5_qSLaAjla-408">
          <mxGeometry width="55" height="40" as="geometry" />
        </mxCell>
        <mxCell id="aTKgwxSe1R5_qSLaAjla-410" style="shape=partialRectangle;html=1;whiteSpace=wrap;collapsible=0;dropTarget=0;pointerEvents=0;top=0;left=0;bottom=0;right=0;points=[[0,0.5],[1,0.5]];portConstraint=eastwest;labelBackgroundColor=none;strokeColor=#666666;fontColor=#333333;fillColor=#DEDEDE;" vertex="1" parent="aTKgwxSe1R5_qSLaAjla-385">
          <mxGeometry y="490" width="55" height="40" as="geometry" />
        </mxCell>
        <mxCell id="aTKgwxSe1R5_qSLaAjla-411" value="-" style="shape=partialRectangle;html=1;whiteSpace=wrap;connectable=0;top=0;left=0;bottom=0;right=0;overflow=hidden;labelBackgroundColor=none;strokeColor=#666666;fontColor=#333333;fillColor=#DEDEDE;" vertex="1" parent="aTKgwxSe1R5_qSLaAjla-410">
          <mxGeometry width="55" height="40" as="geometry" />
        </mxCell>
        <mxCell id="aTKgwxSe1R5_qSLaAjla-412" style="shape=partialRectangle;html=1;whiteSpace=wrap;collapsible=0;dropTarget=0;pointerEvents=0;top=0;left=0;bottom=0;right=0;points=[[0,0.5],[1,0.5]];portConstraint=eastwest;labelBackgroundColor=none;strokeColor=#666666;fontColor=#333333;fillColor=#DEDEDE;" vertex="1" parent="aTKgwxSe1R5_qSLaAjla-385">
          <mxGeometry y="530" width="55" height="40" as="geometry" />
        </mxCell>
        <mxCell id="aTKgwxSe1R5_qSLaAjla-413" value="-" style="shape=partialRectangle;html=1;whiteSpace=wrap;connectable=0;top=0;left=0;bottom=0;right=0;overflow=hidden;labelBackgroundColor=none;strokeColor=#666666;fontColor=#333333;fillColor=#DEDEDE;" vertex="1" parent="aTKgwxSe1R5_qSLaAjla-412">
          <mxGeometry width="55" height="40" as="geometry" />
        </mxCell>
        <mxCell id="aTKgwxSe1R5_qSLaAjla-414" style="shape=partialRectangle;html=1;whiteSpace=wrap;collapsible=0;dropTarget=0;pointerEvents=0;top=0;left=0;bottom=0;right=0;points=[[0,0.5],[1,0.5]];portConstraint=eastwest;labelBackgroundColor=none;strokeColor=#666666;fontColor=#333333;fillColor=#DEDEDE;" vertex="1" parent="aTKgwxSe1R5_qSLaAjla-385">
          <mxGeometry y="570" width="55" height="40" as="geometry" />
        </mxCell>
        <mxCell id="aTKgwxSe1R5_qSLaAjla-415" value="-" style="shape=partialRectangle;html=1;whiteSpace=wrap;connectable=0;top=0;left=0;bottom=0;right=0;overflow=hidden;labelBackgroundColor=none;strokeColor=#666666;fontColor=#333333;fillColor=#DEDEDE;" vertex="1" parent="aTKgwxSe1R5_qSLaAjla-414">
          <mxGeometry width="55" height="40" as="geometry" />
        </mxCell>
        <mxCell id="aTKgwxSe1R5_qSLaAjla-416" style="shape=partialRectangle;html=1;whiteSpace=wrap;collapsible=0;dropTarget=0;pointerEvents=0;top=0;left=0;bottom=0;right=0;points=[[0,0.5],[1,0.5]];portConstraint=eastwest;labelBackgroundColor=none;strokeColor=#666666;fontColor=#333333;fillColor=#DEDEDE;" vertex="1" parent="aTKgwxSe1R5_qSLaAjla-385">
          <mxGeometry y="610" width="55" height="40" as="geometry" />
        </mxCell>
        <mxCell id="aTKgwxSe1R5_qSLaAjla-417" value="-" style="shape=partialRectangle;html=1;whiteSpace=wrap;connectable=0;top=0;left=0;bottom=0;right=0;overflow=hidden;labelBackgroundColor=none;strokeColor=#666666;fontColor=#333333;fillColor=#DEDEDE;" vertex="1" parent="aTKgwxSe1R5_qSLaAjla-416">
          <mxGeometry width="55" height="40" as="geometry" />
        </mxCell>
        <mxCell id="aTKgwxSe1R5_qSLaAjla-418" style="shape=partialRectangle;html=1;whiteSpace=wrap;collapsible=0;dropTarget=0;pointerEvents=0;top=0;left=0;bottom=0;right=0;points=[[0,0.5],[1,0.5]];portConstraint=eastwest;labelBackgroundColor=none;strokeColor=#666666;fontColor=#333333;fillColor=#DEDEDE;" vertex="1" parent="aTKgwxSe1R5_qSLaAjla-385">
          <mxGeometry y="650" width="55" height="40" as="geometry" />
        </mxCell>
        <mxCell id="aTKgwxSe1R5_qSLaAjla-419" value="-" style="shape=partialRectangle;html=1;whiteSpace=wrap;connectable=0;top=0;left=0;bottom=0;right=0;overflow=hidden;labelBackgroundColor=none;strokeColor=#666666;fontColor=#333333;fillColor=#DEDEDE;" vertex="1" parent="aTKgwxSe1R5_qSLaAjla-418">
          <mxGeometry width="55" height="40" as="geometry" />
        </mxCell>
        <mxCell id="aTKgwxSe1R5_qSLaAjla-420" style="shape=partialRectangle;html=1;whiteSpace=wrap;collapsible=0;dropTarget=0;pointerEvents=0;fillColor=none;top=0;left=0;bottom=0;right=0;points=[[0,0.5],[1,0.5]];portConstraint=eastwest;" vertex="1" parent="aTKgwxSe1R5_qSLaAjla-385">
          <mxGeometry y="690" width="55" height="40" as="geometry" />
        </mxCell>
        <mxCell id="aTKgwxSe1R5_qSLaAjla-421" value="-" style="shape=partialRectangle;html=1;whiteSpace=wrap;connectable=0;fillColor=none;top=0;left=0;bottom=0;right=0;overflow=hidden;" vertex="1" parent="aTKgwxSe1R5_qSLaAjla-420">
          <mxGeometry width="55" height="40" as="geometry" />
        </mxCell>
        <mxCell id="aTKgwxSe1R5_qSLaAjla-173" value="+" style="html=1;shadow=0;dashed=0;shape=mxgraph.bootstrap.rrect;rSize=5;strokeColor=none;strokeWidth=1;fillColor=#33A64C;fontColor=#FFFFFF;whiteSpace=wrap;align=center;verticalAlign=middle;spacingLeft=0;fontStyle=0;fontSize=32;spacing=5;startSize=0;" vertex="1" parent="1">
          <mxGeometry x="680" y="160" width="30" height="30" as="geometry" />
        </mxCell>
        <mxCell id="aTKgwxSe1R5_qSLaAjla-175" value="-" style="html=1;shadow=0;dashed=0;shape=mxgraph.bootstrap.rrect;rSize=5;strokeColor=none;strokeWidth=1;fillColor=#DB2843;fontColor=#FFFFFF;whiteSpace=wrap;align=center;verticalAlign=middle;spacingLeft=0;fontStyle=0;fontSize=32;spacing=5;startSize=0;" vertex="1" parent="1">
          <mxGeometry x="740" y="160" width="30" height="30" as="geometry" />
        </mxCell>
        <mxCell id="aTKgwxSe1R5_qSLaAjla-476" value="+" style="html=1;shadow=0;dashed=0;shape=mxgraph.bootstrap.rrect;rSize=5;strokeColor=none;strokeWidth=1;fillColor=#33A64C;fontColor=#FFFFFF;whiteSpace=wrap;align=center;verticalAlign=middle;spacingLeft=0;fontStyle=0;fontSize=32;spacing=5;startSize=0;" vertex="1" parent="1">
          <mxGeometry x="680" y="200" width="30" height="30" as="geometry" />
        </mxCell>
        <mxCell id="aTKgwxSe1R5_qSLaAjla-477" value="-" style="html=1;shadow=0;dashed=0;shape=mxgraph.bootstrap.rrect;rSize=5;strokeColor=none;strokeWidth=1;fillColor=#DB2843;fontColor=#FFFFFF;whiteSpace=wrap;align=center;verticalAlign=middle;spacingLeft=0;fontStyle=0;fontSize=32;spacing=5;startSize=0;" vertex="1" parent="1">
          <mxGeometry x="740" y="200" width="30" height="30" as="geometry" />
        </mxCell>
        <mxCell id="aTKgwxSe1R5_qSLaAjla-478" value="+" style="html=1;shadow=0;dashed=0;shape=mxgraph.bootstrap.rrect;rSize=5;strokeColor=none;strokeWidth=1;fillColor=#33A64C;fontColor=#FFFFFF;whiteSpace=wrap;align=center;verticalAlign=middle;spacingLeft=0;fontStyle=0;fontSize=32;spacing=5;startSize=0;" vertex="1" parent="1">
          <mxGeometry x="680" y="240" width="30" height="30" as="geometry" />
        </mxCell>
        <mxCell id="aTKgwxSe1R5_qSLaAjla-479" value="-" style="html=1;shadow=0;dashed=0;shape=mxgraph.bootstrap.rrect;rSize=5;strokeColor=none;strokeWidth=1;fillColor=#DB2843;fontColor=#FFFFFF;whiteSpace=wrap;align=center;verticalAlign=middle;spacingLeft=0;fontStyle=0;fontSize=32;spacing=5;startSize=0;" vertex="1" parent="1">
          <mxGeometry x="740" y="240" width="30" height="30" as="geometry" />
        </mxCell>
        <mxCell id="aTKgwxSe1R5_qSLaAjla-480" value="+" style="html=1;shadow=0;dashed=0;shape=mxgraph.bootstrap.rrect;rSize=5;strokeColor=none;strokeWidth=1;fillColor=#33A64C;fontColor=#FFFFFF;whiteSpace=wrap;align=center;verticalAlign=middle;spacingLeft=0;fontStyle=0;fontSize=32;spacing=5;startSize=0;" vertex="1" parent="1">
          <mxGeometry x="680" y="280" width="30" height="30" as="geometry" />
        </mxCell>
        <mxCell id="aTKgwxSe1R5_qSLaAjla-481" value="-" style="html=1;shadow=0;dashed=0;shape=mxgraph.bootstrap.rrect;rSize=5;strokeColor=none;strokeWidth=1;fillColor=#DB2843;fontColor=#FFFFFF;whiteSpace=wrap;align=center;verticalAlign=middle;spacingLeft=0;fontStyle=0;fontSize=32;spacing=5;startSize=0;" vertex="1" parent="1">
          <mxGeometry x="740" y="280" width="30" height="30" as="geometry" />
        </mxCell>
        <mxCell id="aTKgwxSe1R5_qSLaAjla-482" value="+" style="html=1;shadow=0;dashed=0;shape=mxgraph.bootstrap.rrect;rSize=5;strokeColor=none;strokeWidth=1;fillColor=#33A64C;fontColor=#FFFFFF;whiteSpace=wrap;align=center;verticalAlign=middle;spacingLeft=0;fontStyle=0;fontSize=32;spacing=5;startSize=0;" vertex="1" parent="1">
          <mxGeometry x="680" y="330" width="30" height="30" as="geometry" />
        </mxCell>
        <mxCell id="aTKgwxSe1R5_qSLaAjla-483" value="-" style="html=1;shadow=0;dashed=0;shape=mxgraph.bootstrap.rrect;rSize=5;strokeColor=none;strokeWidth=1;fillColor=#DB2843;fontColor=#FFFFFF;whiteSpace=wrap;align=center;verticalAlign=middle;spacingLeft=0;fontStyle=0;fontSize=32;spacing=5;startSize=0;" vertex="1" parent="1">
          <mxGeometry x="740" y="330" width="30" height="30" as="geometry" />
        </mxCell>
        <mxCell id="aTKgwxSe1R5_qSLaAjla-484" value="+" style="html=1;shadow=0;dashed=0;shape=mxgraph.bootstrap.rrect;rSize=5;strokeColor=none;strokeWidth=1;fillColor=#33A64C;fontColor=#FFFFFF;whiteSpace=wrap;align=center;verticalAlign=middle;spacingLeft=0;fontStyle=0;fontSize=32;spacing=5;startSize=0;" vertex="1" parent="1">
          <mxGeometry x="680" y="370" width="30" height="30" as="geometry" />
        </mxCell>
        <mxCell id="aTKgwxSe1R5_qSLaAjla-485" value="-" style="html=1;shadow=0;dashed=0;shape=mxgraph.bootstrap.rrect;rSize=5;strokeColor=none;strokeWidth=1;fillColor=#DB2843;fontColor=#FFFFFF;whiteSpace=wrap;align=center;verticalAlign=middle;spacingLeft=0;fontStyle=0;fontSize=32;spacing=5;startSize=0;" vertex="1" parent="1">
          <mxGeometry x="740" y="370" width="30" height="30" as="geometry" />
        </mxCell>
        <mxCell id="aTKgwxSe1R5_qSLaAjla-486" value="+" style="html=1;shadow=0;dashed=0;shape=mxgraph.bootstrap.rrect;rSize=5;strokeColor=none;strokeWidth=1;fillColor=#33A64C;fontColor=#FFFFFF;whiteSpace=wrap;align=center;verticalAlign=middle;spacingLeft=0;fontStyle=0;fontSize=32;spacing=5;startSize=0;" vertex="1" parent="1">
          <mxGeometry x="680" y="410" width="30" height="30" as="geometry" />
        </mxCell>
        <mxCell id="aTKgwxSe1R5_qSLaAjla-487" value="-" style="html=1;shadow=0;dashed=0;shape=mxgraph.bootstrap.rrect;rSize=5;strokeColor=none;strokeWidth=1;fillColor=#DB2843;fontColor=#FFFFFF;whiteSpace=wrap;align=center;verticalAlign=middle;spacingLeft=0;fontStyle=0;fontSize=32;spacing=5;startSize=0;" vertex="1" parent="1">
          <mxGeometry x="740" y="410" width="30" height="30" as="geometry" />
        </mxCell>
        <mxCell id="aTKgwxSe1R5_qSLaAjla-488" value="+" style="html=1;shadow=0;dashed=0;shape=mxgraph.bootstrap.rrect;rSize=5;strokeColor=none;strokeWidth=1;fillColor=#33A64C;fontColor=#FFFFFF;whiteSpace=wrap;align=center;verticalAlign=middle;spacingLeft=0;fontStyle=0;fontSize=32;spacing=5;startSize=0;" vertex="1" parent="1">
          <mxGeometry x="680" y="450" width="30" height="30" as="geometry" />
        </mxCell>
        <mxCell id="aTKgwxSe1R5_qSLaAjla-489" value="-" style="html=1;shadow=0;dashed=0;shape=mxgraph.bootstrap.rrect;rSize=5;strokeColor=none;strokeWidth=1;fillColor=#DB2843;fontColor=#FFFFFF;whiteSpace=wrap;align=center;verticalAlign=middle;spacingLeft=0;fontStyle=0;fontSize=32;spacing=5;startSize=0;" vertex="1" parent="1">
          <mxGeometry x="740" y="450" width="30" height="30" as="geometry" />
        </mxCell>
        <mxCell id="aTKgwxSe1R5_qSLaAjla-490" value="+" style="html=1;shadow=0;dashed=0;shape=mxgraph.bootstrap.rrect;rSize=5;strokeColor=none;strokeWidth=1;fillColor=#33A64C;fontColor=#FFFFFF;whiteSpace=wrap;align=center;verticalAlign=middle;spacingLeft=0;fontStyle=0;fontSize=32;spacing=5;startSize=0;" vertex="1" parent="1">
          <mxGeometry x="680" y="495" width="30" height="30" as="geometry" />
        </mxCell>
        <mxCell id="aTKgwxSe1R5_qSLaAjla-491" value="-" style="html=1;shadow=0;dashed=0;shape=mxgraph.bootstrap.rrect;rSize=5;strokeColor=none;strokeWidth=1;fillColor=#DB2843;fontColor=#FFFFFF;whiteSpace=wrap;align=center;verticalAlign=middle;spacingLeft=0;fontStyle=0;fontSize=32;spacing=5;startSize=0;" vertex="1" parent="1">
          <mxGeometry x="740" y="495" width="30" height="30" as="geometry" />
        </mxCell>
        <mxCell id="aTKgwxSe1R5_qSLaAjla-492" value="+" style="html=1;shadow=0;dashed=0;shape=mxgraph.bootstrap.rrect;rSize=5;strokeColor=none;strokeWidth=1;fillColor=#33A64C;fontColor=#FFFFFF;whiteSpace=wrap;align=center;verticalAlign=middle;spacingLeft=0;fontStyle=0;fontSize=32;spacing=5;startSize=0;" vertex="1" parent="1">
          <mxGeometry x="680" y="535" width="30" height="30" as="geometry" />
        </mxCell>
        <mxCell id="aTKgwxSe1R5_qSLaAjla-493" value="-" style="html=1;shadow=0;dashed=0;shape=mxgraph.bootstrap.rrect;rSize=5;strokeColor=none;strokeWidth=1;fillColor=#DB2843;fontColor=#FFFFFF;whiteSpace=wrap;align=center;verticalAlign=middle;spacingLeft=0;fontStyle=0;fontSize=32;spacing=5;startSize=0;" vertex="1" parent="1">
          <mxGeometry x="740" y="535" width="30" height="30" as="geometry" />
        </mxCell>
        <mxCell id="aTKgwxSe1R5_qSLaAjla-494" value="+" style="html=1;shadow=0;dashed=0;shape=mxgraph.bootstrap.rrect;rSize=5;strokeColor=none;strokeWidth=1;fillColor=#33A64C;fontColor=#FFFFFF;whiteSpace=wrap;align=center;verticalAlign=middle;spacingLeft=0;fontStyle=0;fontSize=32;spacing=5;startSize=0;" vertex="1" parent="1">
          <mxGeometry x="680" y="570" width="30" height="30" as="geometry" />
        </mxCell>
        <mxCell id="aTKgwxSe1R5_qSLaAjla-495" value="-" style="html=1;shadow=0;dashed=0;shape=mxgraph.bootstrap.rrect;rSize=5;strokeColor=none;strokeWidth=1;fillColor=#DB2843;fontColor=#FFFFFF;whiteSpace=wrap;align=center;verticalAlign=middle;spacingLeft=0;fontStyle=0;fontSize=32;spacing=5;startSize=0;" vertex="1" parent="1">
          <mxGeometry x="740" y="570" width="30" height="30" as="geometry" />
        </mxCell>
        <mxCell id="aTKgwxSe1R5_qSLaAjla-496" value="+" style="html=1;shadow=0;dashed=0;shape=mxgraph.bootstrap.rrect;rSize=5;strokeColor=none;strokeWidth=1;fillColor=#33A64C;fontColor=#FFFFFF;whiteSpace=wrap;align=center;verticalAlign=middle;spacingLeft=0;fontStyle=0;fontSize=32;spacing=5;startSize=0;" vertex="1" parent="1">
          <mxGeometry x="680" y="610" width="30" height="30" as="geometry" />
        </mxCell>
        <mxCell id="aTKgwxSe1R5_qSLaAjla-497" value="-" style="html=1;shadow=0;dashed=0;shape=mxgraph.bootstrap.rrect;rSize=5;strokeColor=none;strokeWidth=1;fillColor=#DB2843;fontColor=#FFFFFF;whiteSpace=wrap;align=center;verticalAlign=middle;spacingLeft=0;fontStyle=0;fontSize=32;spacing=5;startSize=0;" vertex="1" parent="1">
          <mxGeometry x="740" y="610" width="30" height="30" as="geometry" />
        </mxCell>
        <mxCell id="aTKgwxSe1R5_qSLaAjla-500" value="+" style="html=1;shadow=0;dashed=0;shape=mxgraph.bootstrap.rrect;rSize=5;strokeColor=none;strokeWidth=1;fillColor=#33A64C;fontColor=#FFFFFF;whiteSpace=wrap;align=center;verticalAlign=middle;spacingLeft=0;fontStyle=0;fontSize=32;spacing=5;startSize=0;" vertex="1" parent="1">
          <mxGeometry x="680" y="650" width="30" height="30" as="geometry" />
        </mxCell>
        <mxCell id="aTKgwxSe1R5_qSLaAjla-501" value="-" style="html=1;shadow=0;dashed=0;shape=mxgraph.bootstrap.rrect;rSize=5;strokeColor=none;strokeWidth=1;fillColor=#DB2843;fontColor=#FFFFFF;whiteSpace=wrap;align=center;verticalAlign=middle;spacingLeft=0;fontStyle=0;fontSize=32;spacing=5;startSize=0;" vertex="1" parent="1">
          <mxGeometry x="740" y="650" width="30" height="30" as="geometry" />
        </mxCell>
        <mxCell id="aTKgwxSe1R5_qSLaAjla-502" value="+" style="html=1;shadow=0;dashed=0;shape=mxgraph.bootstrap.rrect;rSize=5;strokeColor=none;strokeWidth=1;fillColor=#33A64C;fontColor=#FFFFFF;whiteSpace=wrap;align=center;verticalAlign=middle;spacingLeft=0;fontStyle=0;fontSize=32;spacing=5;startSize=0;" vertex="1" parent="1">
          <mxGeometry x="680" y="690" width="30" height="30" as="geometry" />
        </mxCell>
        <mxCell id="aTKgwxSe1R5_qSLaAjla-503" value="-" style="html=1;shadow=0;dashed=0;shape=mxgraph.bootstrap.rrect;rSize=5;strokeColor=none;strokeWidth=1;fillColor=#DB2843;fontColor=#FFFFFF;whiteSpace=wrap;align=center;verticalAlign=middle;spacingLeft=0;fontStyle=0;fontSize=32;spacing=5;startSize=0;" vertex="1" parent="1">
          <mxGeometry x="740" y="690" width="30" height="30" as="geometry" />
        </mxCell>
        <mxCell id="aTKgwxSe1R5_qSLaAjla-506" value="+" style="html=1;shadow=0;dashed=0;shape=mxgraph.bootstrap.rrect;rSize=5;strokeColor=none;strokeWidth=1;fillColor=#33A64C;fontColor=#FFFFFF;whiteSpace=wrap;align=center;verticalAlign=middle;spacingLeft=0;fontStyle=0;fontSize=32;spacing=5;startSize=0;" vertex="1" parent="1">
          <mxGeometry x="680" y="730" width="30" height="30" as="geometry" />
        </mxCell>
        <mxCell id="aTKgwxSe1R5_qSLaAjla-507" value="-" style="html=1;shadow=0;dashed=0;shape=mxgraph.bootstrap.rrect;rSize=5;strokeColor=none;strokeWidth=1;fillColor=#DB2843;fontColor=#FFFFFF;whiteSpace=wrap;align=center;verticalAlign=middle;spacingLeft=0;fontStyle=0;fontSize=32;spacing=5;startSize=0;" vertex="1" parent="1">
          <mxGeometry x="740" y="730" width="30" height="30" as="geometry" />
        </mxCell>
        <mxCell id="aTKgwxSe1R5_qSLaAjla-510" value="+" style="html=1;shadow=0;dashed=0;shape=mxgraph.bootstrap.rrect;rSize=5;strokeColor=none;strokeWidth=1;fillColor=#33A64C;fontColor=#FFFFFF;whiteSpace=wrap;align=center;verticalAlign=middle;spacingLeft=0;fontStyle=0;fontSize=32;spacing=5;startSize=0;" vertex="1" parent="1">
          <mxGeometry x="680" y="770" width="30" height="30" as="geometry" />
        </mxCell>
        <mxCell id="aTKgwxSe1R5_qSLaAjla-511" value="-" style="html=1;shadow=0;dashed=0;shape=mxgraph.bootstrap.rrect;rSize=5;strokeColor=none;strokeWidth=1;fillColor=#DB2843;fontColor=#FFFFFF;whiteSpace=wrap;align=center;verticalAlign=middle;spacingLeft=0;fontStyle=0;fontSize=32;spacing=5;startSize=0;" vertex="1" parent="1">
          <mxGeometry x="740" y="770" width="30" height="30" as="geometry" />
        </mxCell>
        <mxCell id="aTKgwxSe1R5_qSLaAjla-512" value="+" style="html=1;shadow=0;dashed=0;shape=mxgraph.bootstrap.rrect;rSize=5;strokeColor=none;strokeWidth=1;fillColor=#33A64C;fontColor=#FFFFFF;whiteSpace=wrap;align=center;verticalAlign=middle;spacingLeft=0;fontStyle=0;fontSize=32;spacing=5;startSize=0;" vertex="1" parent="1">
          <mxGeometry x="680" y="810" width="30" height="30" as="geometry" />
        </mxCell>
        <mxCell id="aTKgwxSe1R5_qSLaAjla-513" value="-" style="html=1;shadow=0;dashed=0;shape=mxgraph.bootstrap.rrect;rSize=5;strokeColor=none;strokeWidth=1;fillColor=#DB2843;fontColor=#FFFFFF;whiteSpace=wrap;align=center;verticalAlign=middle;spacingLeft=0;fontStyle=0;fontSize=32;spacing=5;startSize=0;" vertex="1" parent="1">
          <mxGeometry x="740" y="810" width="30" height="30" as="geometry" />
        </mxCell>
        <mxCell id="aTKgwxSe1R5_qSLaAjla-514" value="+" style="html=1;shadow=0;dashed=0;shape=mxgraph.bootstrap.rrect;rSize=5;strokeColor=none;strokeWidth=1;fillColor=#33A64C;fontColor=#FFFFFF;whiteSpace=wrap;align=center;verticalAlign=middle;spacingLeft=0;fontStyle=0;fontSize=32;spacing=5;startSize=0;" vertex="1" parent="1">
          <mxGeometry x="680" y="850" width="30" height="30" as="geometry" />
        </mxCell>
        <mxCell id="aTKgwxSe1R5_qSLaAjla-515" value="-" style="html=1;shadow=0;dashed=0;shape=mxgraph.bootstrap.rrect;rSize=5;strokeColor=none;strokeWidth=1;fillColor=#DB2843;fontColor=#FFFFFF;whiteSpace=wrap;align=center;verticalAlign=middle;spacingLeft=0;fontStyle=0;fontSize=32;spacing=5;startSize=0;" vertex="1" parent="1">
          <mxGeometry x="740" y="850" width="30" height="30" as="geometry" />
        </mxCell>
        <mxCell id="aTKgwxSe1R5_qSLaAjla-516" value="Total" style="text;strokeColor=#6c8ebf;fillColor=#dae8fc;html=1;fontSize=24;fontStyle=1;verticalAlign=middle;align=center;shadow=0;startSize=0;" vertex="1" parent="1">
          <mxGeometry x="70" y="890" width="100" height="40" as="geometry" />
        </mxCell>
        <mxCell id="aTKgwxSe1R5_qSLaAjla-517" value="-" style="text;strokeColor=#6c8ebf;fillColor=#dae8fc;html=1;fontSize=24;fontStyle=1;verticalAlign=middle;align=center;shadow=0;startSize=0;" vertex="1" parent="1">
          <mxGeometry x="215" y="890" width="100" height="40" as="geometry" />
        </mxCell>
        <mxCell id="aTKgwxSe1R5_qSLaAjla-518" value="-" style="text;strokeColor=#6c8ebf;fillColor=#dae8fc;html=1;fontSize=24;fontStyle=1;verticalAlign=middle;align=center;shadow=0;startSize=0;" vertex="1" parent="1">
          <mxGeometry x="365" y="890" width="100" height="40" as="geometry" />
        </mxCell>
        <mxCell id="aTKgwxSe1R5_qSLaAjla-519" value="-" style="text;strokeColor=#6c8ebf;fillColor=#dae8fc;html=1;fontSize=24;fontStyle=1;verticalAlign=middle;align=center;shadow=0;startSize=0;" vertex="1" parent="1">
          <mxGeometry x="515" y="890" width="100" height="40" as="geometry" />
        </mxCell>
        <mxCell id="aTKgwxSe1R5_qSLaAjla-309" value="" style="shape=table;html=1;whiteSpace=wrap;startSize=0;container=1;collapsible=0;childLayout=tableLayout;shadow=0;strokeColor=#666666;fontFamily=Helvetica;fontSize=15;fontStyle=0;separatorColor=#CC0066;fixedRows=1;horizontal=1;resizeLastRow=0;labelBackgroundColor=#CCCCFF;fontColor=#333333;fillColor=#DEDEDE;labelBorderColor=none;" vertex="1" parent="1">
          <mxGeometry x="85" y="150" width="60" height="730" as="geometry" />
        </mxCell>
        <mxCell id="aTKgwxSe1R5_qSLaAjla-310" value="" style="shape=partialRectangle;html=1;whiteSpace=wrap;collapsible=0;dropTarget=0;pointerEvents=0;top=0;left=0;bottom=0;right=0;points=[[0,0.5],[1,0.5]];portConstraint=eastwest;labelBackgroundColor=none;strokeColor=#666666;fontColor=#333333;fillColor=#DEDEDE;" vertex="1" parent="aTKgwxSe1R5_qSLaAjla-309">
          <mxGeometry width="60" height="40" as="geometry" />
        </mxCell>
        <mxCell id="aTKgwxSe1R5_qSLaAjla-311" value="&lt;font&gt;&lt;font style=&quot;font-size: 12px&quot;&gt;1&lt;/font&gt;&lt;br&gt;&lt;/font&gt;" style="shape=partialRectangle;html=1;whiteSpace=wrap;connectable=0;top=0;left=0;bottom=0;right=0;overflow=hidden;labelBackgroundColor=none;strokeColor=#666666;fontColor=#333333;fillColor=#DEDEDE;" vertex="1" parent="aTKgwxSe1R5_qSLaAjla-310">
          <mxGeometry width="60" height="40" as="geometry" />
        </mxCell>
        <mxCell id="aTKgwxSe1R5_qSLaAjla-312" style="shape=partialRectangle;html=1;whiteSpace=wrap;collapsible=0;dropTarget=0;pointerEvents=0;top=0;left=0;bottom=0;right=0;points=[[0,0.5],[1,0.5]];portConstraint=eastwest;labelBackgroundColor=none;strokeColor=#666666;fontColor=#333333;fillColor=#DEDEDE;" vertex="1" parent="aTKgwxSe1R5_qSLaAjla-309">
          <mxGeometry y="40" width="60" height="40" as="geometry" />
        </mxCell>
        <mxCell id="aTKgwxSe1R5_qSLaAjla-313" value="2" style="shape=partialRectangle;html=1;whiteSpace=wrap;connectable=0;top=0;left=0;bottom=0;right=0;overflow=hidden;labelBackgroundColor=none;strokeColor=#666666;fontColor=#333333;fillColor=#DEDEDE;" vertex="1" parent="aTKgwxSe1R5_qSLaAjla-312">
          <mxGeometry width="60" height="40" as="geometry" />
        </mxCell>
        <mxCell id="aTKgwxSe1R5_qSLaAjla-314" style="shape=partialRectangle;html=1;whiteSpace=wrap;collapsible=0;dropTarget=0;pointerEvents=0;top=0;left=0;bottom=0;right=0;points=[[0,0.5],[1,0.5]];portConstraint=eastwest;sketch=0;shadow=0;labelBackgroundColor=none;strokeColor=#666666;fontColor=#333333;fillColor=#DEDEDE;" vertex="1" parent="aTKgwxSe1R5_qSLaAjla-309">
          <mxGeometry y="80" width="60" height="40" as="geometry" />
        </mxCell>
        <mxCell id="aTKgwxSe1R5_qSLaAjla-315" value="3" style="shape=partialRectangle;html=1;whiteSpace=wrap;connectable=0;top=0;left=0;bottom=0;right=0;overflow=hidden;sketch=0;shadow=0;labelBackgroundColor=none;strokeColor=#666666;fontColor=#333333;fillColor=#DEDEDE;" vertex="1" parent="aTKgwxSe1R5_qSLaAjla-314">
          <mxGeometry width="60" height="40" as="geometry" />
        </mxCell>
        <mxCell id="aTKgwxSe1R5_qSLaAjla-316" style="shape=partialRectangle;html=1;whiteSpace=wrap;collapsible=0;dropTarget=0;pointerEvents=0;top=0;left=0;bottom=0;right=0;points=[[0,0.5],[1,0.5]];portConstraint=eastwest;sketch=0;shadow=0;labelBackgroundColor=none;strokeColor=#666666;fontColor=#333333;fillColor=#DEDEDE;" vertex="1" parent="aTKgwxSe1R5_qSLaAjla-309">
          <mxGeometry y="120" width="60" height="40" as="geometry" />
        </mxCell>
        <mxCell id="aTKgwxSe1R5_qSLaAjla-317" value="4" style="shape=partialRectangle;html=1;whiteSpace=wrap;connectable=0;top=0;left=0;bottom=0;right=0;overflow=hidden;sketch=0;shadow=0;labelBackgroundColor=none;strokeColor=#666666;fontColor=#333333;fillColor=#DEDEDE;" vertex="1" parent="aTKgwxSe1R5_qSLaAjla-316">
          <mxGeometry width="60" height="40" as="geometry" />
        </mxCell>
        <mxCell id="aTKgwxSe1R5_qSLaAjla-318" style="shape=partialRectangle;html=1;whiteSpace=wrap;collapsible=0;dropTarget=0;pointerEvents=0;top=0;left=0;bottom=0;right=0;points=[[0,0.5],[1,0.5]];portConstraint=eastwest;sketch=0;shadow=0;labelBackgroundColor=none;strokeColor=#666666;fontColor=#333333;fillColor=#DEDEDE;" vertex="1" parent="aTKgwxSe1R5_qSLaAjla-309">
          <mxGeometry y="160" width="60" height="40" as="geometry" />
        </mxCell>
        <mxCell id="aTKgwxSe1R5_qSLaAjla-319" value="5" style="shape=partialRectangle;html=1;whiteSpace=wrap;connectable=0;top=0;left=0;bottom=0;right=0;overflow=hidden;sketch=0;shadow=0;labelBackgroundColor=none;strokeColor=#666666;fontColor=#333333;fillColor=#DEDEDE;" vertex="1" parent="aTKgwxSe1R5_qSLaAjla-318">
          <mxGeometry width="60" height="40" as="geometry" />
        </mxCell>
        <mxCell id="aTKgwxSe1R5_qSLaAjla-320" style="shape=partialRectangle;html=1;whiteSpace=wrap;collapsible=0;dropTarget=0;pointerEvents=0;top=0;left=0;bottom=0;right=0;points=[[0,0.5],[1,0.5]];portConstraint=eastwest;labelBackgroundColor=none;strokeColor=#666666;fontColor=#333333;fillColor=#DEDEDE;" vertex="1" parent="aTKgwxSe1R5_qSLaAjla-309">
          <mxGeometry y="200" width="60" height="40" as="geometry" />
        </mxCell>
        <mxCell id="aTKgwxSe1R5_qSLaAjla-321" value="6" style="shape=partialRectangle;html=1;whiteSpace=wrap;connectable=0;top=0;left=0;bottom=0;right=0;overflow=hidden;labelBackgroundColor=none;strokeColor=#666666;fontColor=#333333;fillColor=#DEDEDE;" vertex="1" parent="aTKgwxSe1R5_qSLaAjla-320">
          <mxGeometry width="60" height="40" as="geometry" />
        </mxCell>
        <mxCell id="aTKgwxSe1R5_qSLaAjla-322" style="shape=partialRectangle;html=1;whiteSpace=wrap;collapsible=0;dropTarget=0;pointerEvents=0;top=0;left=0;bottom=0;right=0;points=[[0,0.5],[1,0.5]];portConstraint=eastwest;labelBackgroundColor=none;strokeColor=#666666;fontColor=#333333;fillColor=#DEDEDE;" vertex="1" parent="aTKgwxSe1R5_qSLaAjla-309">
          <mxGeometry y="240" width="60" height="40" as="geometry" />
        </mxCell>
        <mxCell id="aTKgwxSe1R5_qSLaAjla-323" value="7" style="shape=partialRectangle;html=1;whiteSpace=wrap;connectable=0;top=0;left=0;bottom=0;right=0;overflow=hidden;labelBackgroundColor=none;strokeColor=#666666;fontColor=#333333;fillColor=#DEDEDE;" vertex="1" parent="aTKgwxSe1R5_qSLaAjla-322">
          <mxGeometry width="60" height="40" as="geometry" />
        </mxCell>
        <mxCell id="aTKgwxSe1R5_qSLaAjla-324" style="shape=partialRectangle;html=1;whiteSpace=wrap;collapsible=0;dropTarget=0;pointerEvents=0;top=0;left=0;bottom=0;right=0;points=[[0,0.5],[1,0.5]];portConstraint=eastwest;labelBackgroundColor=none;strokeColor=#666666;fontColor=#333333;fillColor=#DEDEDE;" vertex="1" parent="aTKgwxSe1R5_qSLaAjla-309">
          <mxGeometry y="280" width="60" height="40" as="geometry" />
        </mxCell>
        <mxCell id="aTKgwxSe1R5_qSLaAjla-325" value="8" style="shape=partialRectangle;html=1;whiteSpace=wrap;connectable=0;top=0;left=0;bottom=0;right=0;overflow=hidden;labelBackgroundColor=none;strokeColor=#666666;fontColor=#333333;fillColor=#DEDEDE;" vertex="1" parent="aTKgwxSe1R5_qSLaAjla-324">
          <mxGeometry width="60" height="40" as="geometry" />
        </mxCell>
        <mxCell id="aTKgwxSe1R5_qSLaAjla-326" style="shape=partialRectangle;html=1;whiteSpace=wrap;collapsible=0;dropTarget=0;pointerEvents=0;top=0;left=0;bottom=0;right=0;points=[[0,0.5],[1,0.5]];portConstraint=eastwest;labelBackgroundColor=none;strokeColor=#666666;fontColor=#333333;fillColor=#DEDEDE;" vertex="1" parent="aTKgwxSe1R5_qSLaAjla-309">
          <mxGeometry y="320" width="60" height="40" as="geometry" />
        </mxCell>
        <mxCell id="aTKgwxSe1R5_qSLaAjla-327" value="9" style="shape=partialRectangle;html=1;whiteSpace=wrap;connectable=0;top=0;left=0;bottom=0;right=0;overflow=hidden;labelBackgroundColor=none;strokeColor=#666666;fontColor=#333333;fillColor=#DEDEDE;" vertex="1" parent="aTKgwxSe1R5_qSLaAjla-326">
          <mxGeometry width="60" height="40" as="geometry" />
        </mxCell>
        <mxCell id="aTKgwxSe1R5_qSLaAjla-328" style="shape=partialRectangle;html=1;whiteSpace=wrap;collapsible=0;dropTarget=0;pointerEvents=0;top=0;left=0;bottom=0;right=0;points=[[0,0.5],[1,0.5]];portConstraint=eastwest;labelBackgroundColor=none;strokeColor=#666666;fontColor=#333333;fillColor=#DEDEDE;" vertex="1" parent="aTKgwxSe1R5_qSLaAjla-309">
          <mxGeometry y="360" width="60" height="40" as="geometry" />
        </mxCell>
        <mxCell id="aTKgwxSe1R5_qSLaAjla-329" value="10" style="shape=partialRectangle;html=1;whiteSpace=wrap;connectable=0;top=0;left=0;bottom=0;right=0;overflow=hidden;labelBackgroundColor=none;strokeColor=#666666;fontColor=#333333;fillColor=#DEDEDE;" vertex="1" parent="aTKgwxSe1R5_qSLaAjla-328">
          <mxGeometry width="60" height="40" as="geometry" />
        </mxCell>
        <mxCell id="aTKgwxSe1R5_qSLaAjla-330" style="shape=partialRectangle;html=1;whiteSpace=wrap;collapsible=0;dropTarget=0;pointerEvents=0;top=0;left=0;bottom=0;right=0;points=[[0,0.5],[1,0.5]];portConstraint=eastwest;labelBackgroundColor=none;strokeColor=#666666;fontColor=#333333;fillColor=#DEDEDE;" vertex="1" parent="aTKgwxSe1R5_qSLaAjla-309">
          <mxGeometry y="400" width="60" height="40" as="geometry" />
        </mxCell>
        <mxCell id="aTKgwxSe1R5_qSLaAjla-331" value="11" style="shape=partialRectangle;html=1;whiteSpace=wrap;connectable=0;top=0;left=0;bottom=0;right=0;overflow=hidden;labelBackgroundColor=none;strokeColor=#666666;fontColor=#333333;fillColor=#DEDEDE;" vertex="1" parent="aTKgwxSe1R5_qSLaAjla-330">
          <mxGeometry width="60" height="40" as="geometry" />
        </mxCell>
        <mxCell id="aTKgwxSe1R5_qSLaAjla-332" style="shape=partialRectangle;html=1;whiteSpace=wrap;collapsible=0;dropTarget=0;pointerEvents=0;top=0;left=0;bottom=0;right=0;points=[[0,0.5],[1,0.5]];portConstraint=eastwest;labelBackgroundColor=none;strokeColor=#666666;fontColor=#333333;fillColor=#DEDEDE;" vertex="1" parent="aTKgwxSe1R5_qSLaAjla-309">
          <mxGeometry y="440" width="60" height="40" as="geometry" />
        </mxCell>
        <mxCell id="aTKgwxSe1R5_qSLaAjla-333" value="12" style="shape=partialRectangle;html=1;whiteSpace=wrap;connectable=0;top=0;left=0;bottom=0;right=0;overflow=hidden;labelBackgroundColor=none;strokeColor=#666666;fontColor=#333333;fillColor=#DEDEDE;" vertex="1" parent="aTKgwxSe1R5_qSLaAjla-332">
          <mxGeometry width="60" height="40" as="geometry" />
        </mxCell>
        <mxCell id="aTKgwxSe1R5_qSLaAjla-334" style="shape=partialRectangle;html=1;whiteSpace=wrap;collapsible=0;dropTarget=0;pointerEvents=0;top=0;left=0;bottom=0;right=0;points=[[0,0.5],[1,0.5]];portConstraint=eastwest;labelBackgroundColor=none;strokeColor=#666666;fontColor=#333333;fillColor=#DEDEDE;" vertex="1" parent="aTKgwxSe1R5_qSLaAjla-309">
          <mxGeometry y="480" width="60" height="40" as="geometry" />
        </mxCell>
        <mxCell id="aTKgwxSe1R5_qSLaAjla-335" value="13" style="shape=partialRectangle;html=1;whiteSpace=wrap;connectable=0;top=0;left=0;bottom=0;right=0;overflow=hidden;labelBackgroundColor=none;strokeColor=#666666;fontColor=#333333;fillColor=#DEDEDE;" vertex="1" parent="aTKgwxSe1R5_qSLaAjla-334">
          <mxGeometry width="60" height="40" as="geometry" />
        </mxCell>
        <mxCell id="aTKgwxSe1R5_qSLaAjla-336" style="shape=partialRectangle;html=1;whiteSpace=wrap;collapsible=0;dropTarget=0;pointerEvents=0;top=0;left=0;bottom=0;right=0;points=[[0,0.5],[1,0.5]];portConstraint=eastwest;labelBackgroundColor=none;strokeColor=#666666;fontColor=#333333;fillColor=#DEDEDE;" vertex="1" parent="aTKgwxSe1R5_qSLaAjla-309">
          <mxGeometry y="520" width="60" height="40" as="geometry" />
        </mxCell>
        <mxCell id="aTKgwxSe1R5_qSLaAjla-337" value="14" style="shape=partialRectangle;html=1;whiteSpace=wrap;connectable=0;top=0;left=0;bottom=0;right=0;overflow=hidden;labelBackgroundColor=none;strokeColor=#666666;fontColor=#333333;fillColor=#DEDEDE;" vertex="1" parent="aTKgwxSe1R5_qSLaAjla-336">
          <mxGeometry width="60" height="40" as="geometry" />
        </mxCell>
        <mxCell id="aTKgwxSe1R5_qSLaAjla-338" style="shape=partialRectangle;html=1;whiteSpace=wrap;collapsible=0;dropTarget=0;pointerEvents=0;top=0;left=0;bottom=0;right=0;points=[[0,0.5],[1,0.5]];portConstraint=eastwest;labelBackgroundColor=none;strokeColor=#666666;fontColor=#333333;fillColor=#DEDEDE;" vertex="1" parent="aTKgwxSe1R5_qSLaAjla-309">
          <mxGeometry y="560" width="60" height="40" as="geometry" />
        </mxCell>
        <mxCell id="aTKgwxSe1R5_qSLaAjla-339" value="15" style="shape=partialRectangle;html=1;whiteSpace=wrap;connectable=0;top=0;left=0;bottom=0;right=0;overflow=hidden;labelBackgroundColor=none;strokeColor=#666666;fontColor=#333333;fillColor=#DEDEDE;" vertex="1" parent="aTKgwxSe1R5_qSLaAjla-338">
          <mxGeometry width="60" height="40" as="geometry" />
        </mxCell>
        <mxCell id="aTKgwxSe1R5_qSLaAjla-340" style="shape=partialRectangle;html=1;whiteSpace=wrap;collapsible=0;dropTarget=0;pointerEvents=0;top=0;left=0;bottom=0;right=0;points=[[0,0.5],[1,0.5]];portConstraint=eastwest;labelBackgroundColor=none;strokeColor=#666666;fontColor=#333333;fillColor=#DEDEDE;" vertex="1" parent="aTKgwxSe1R5_qSLaAjla-309">
          <mxGeometry y="600" width="60" height="40" as="geometry" />
        </mxCell>
        <mxCell id="aTKgwxSe1R5_qSLaAjla-341" value="16" style="shape=partialRectangle;html=1;whiteSpace=wrap;connectable=0;top=0;left=0;bottom=0;right=0;overflow=hidden;labelBackgroundColor=none;strokeColor=#666666;fontColor=#333333;fillColor=#DEDEDE;" vertex="1" parent="aTKgwxSe1R5_qSLaAjla-340">
          <mxGeometry width="60" height="40" as="geometry" />
        </mxCell>
        <mxCell id="aTKgwxSe1R5_qSLaAjla-342" style="shape=partialRectangle;html=1;whiteSpace=wrap;collapsible=0;dropTarget=0;pointerEvents=0;top=0;left=0;bottom=0;right=0;points=[[0,0.5],[1,0.5]];portConstraint=eastwest;labelBackgroundColor=none;strokeColor=#666666;fontColor=#333333;fillColor=#DEDEDE;" vertex="1" parent="aTKgwxSe1R5_qSLaAjla-309">
          <mxGeometry y="640" width="60" height="40" as="geometry" />
        </mxCell>
        <mxCell id="aTKgwxSe1R5_qSLaAjla-343" value="17" style="shape=partialRectangle;html=1;whiteSpace=wrap;connectable=0;top=0;left=0;bottom=0;right=0;overflow=hidden;labelBackgroundColor=none;strokeColor=#666666;fontColor=#333333;fillColor=#DEDEDE;" vertex="1" parent="aTKgwxSe1R5_qSLaAjla-342">
          <mxGeometry width="60" height="40" as="geometry" />
        </mxCell>
        <mxCell id="aTKgwxSe1R5_qSLaAjla-344" style="shape=partialRectangle;html=1;whiteSpace=wrap;collapsible=0;dropTarget=0;pointerEvents=0;top=0;left=0;bottom=0;right=0;points=[[0,0.5],[1,0.5]];portConstraint=eastwest;labelBackgroundColor=none;strokeColor=#666666;fontColor=#333333;fillColor=#DEDEDE;" vertex="1" parent="aTKgwxSe1R5_qSLaAjla-309">
          <mxGeometry y="680" width="60" height="40" as="geometry" />
        </mxCell>
        <mxCell id="aTKgwxSe1R5_qSLaAjla-345" value="18" style="shape=partialRectangle;html=1;whiteSpace=wrap;connectable=0;top=0;left=0;bottom=0;right=0;overflow=hidden;labelBackgroundColor=none;strokeColor=#666666;fontColor=#333333;fillColor=#DEDEDE;" vertex="1" parent="aTKgwxSe1R5_qSLaAjla-344">
          <mxGeometry width="60" height="40" as="geometry" />
        </mxCell>
      </root>
    </mxGraphModel>
  </diagram>
</mxfile>
